<svg xmlns="http://www.w3.org/2000/svg" width="34" height="34" fill="none" viewBox="0 0 34 34">
  <path fill="#37B29A" d="M20.897 26.92c-.445 0-.877-.173-1.215-.502l-7.35-7.151a3.072 3.072 0 0 1 .021-4.552l7.329-7.13a1.734 1.734 0 0 1 1.91-.361c.664.279 1.076.9 1.076 1.622v16.311c0 .72-.412 1.34-1.075 1.622a1.796 1.796 0 0 1-.694.143l-.002-.003Zm.005-18.42a.326.326 0 0 0-.233.1l-7.35 7.15a1.652 1.652 0 0 0-.02 2.481l7.37 7.171a.33.33 0 0 0 .373.07.332.332 0 0 0 .208-.316V8.844a.335.335 0 0 0-.208-.316.362.362 0 0 0-.14-.028Z"/>
</svg>
