<svg xmlns="http://www.w3.org/2000/svg" width="34" height="34" fill="none" viewBox="0 0 34 34">
  <g clip-path="url(#a)">
    <path fill="#37B29A" d="M14.167 17.708a1.417 1.417 0 1 1-2.834 0 1.417 1.417 0 0 1 2.834 0Zm2.125 2.125a1.417 1.417 0 1 0 0 2.834 1.417 1.417 0 0 0 0-2.834Zm-3.542 4.959a3.547 3.547 0 0 1-3.542 3.541 3.547 3.547 0 0 1-3.541-3.541 3.547 3.547 0 0 1 3.541-3.542 3.547 3.547 0 0 1 3.542 3.542Zm-1.417 0a2.128 2.128 0 0 0-2.125-2.125 2.128 2.128 0 0 0-2.125 2.125c0 1.171.954 2.125 2.125 2.125a2.128 2.128 0 0 0 2.125-2.125ZM22.667 4.25a.708.708 0 1 0 0 1.417 5.672 5.672 0 0 1 5.666 5.666.708.708 0 0 0 1.417 0 7.091 7.091 0 0 0-7.083-7.083Zm2.378 8.72c2.477 2.371 2.48 6.64.009 9.017L14.916 32.13c-2.371 2.475-6.643 2.478-9.017.004L1.87 28.11a6.383 6.383 0 0 1-.006-9.015L12 8.955a6.382 6.382 0 0 1 9.014-.007l4.032 4.023v-.001Zm.455 4.507c0-1.324-.518-2.57-1.455-3.504l-4.032-4.024a4.966 4.966 0 0 0-7.012.006L2.866 20.097a4.964 4.964 0 0 0 .004 7.01l4.03 4.026c1.846 1.922 5.167 1.92 7.012-.005l10.137-10.143a4.928 4.928 0 0 0 1.451-3.508ZM22.667 0a.708.708 0 1 0 0 1.417c5.468 0 9.916 4.448 9.916 9.916a.708.708 0 0 0 1.417 0C34 5.084 28.916 0 22.667 0Zm-2.834 16.292a1.417 1.417 0 1 0 0 2.833 1.417 1.417 0 0 0 0-2.833Zm-3.541-3.542a1.417 1.417 0 1 0 0 2.834 1.417 1.417 0 0 0 0-2.834Z"/>
  </g>
  <defs>
    <clipPath id="a">
      <path fill="#fff" d="M0 0h34v34H0z"/>
    </clipPath>
  </defs>
</svg>
