<svg xmlns="http://www.w3.org/2000/svg" width="34" height="34" fill="none" viewBox="0 0 34 34">
  <path fill="#37B29A" d="M28.82 2.092H5.18A3.086 3.086 0 0 0 2.092 5.18v23.64a3.086 3.086 0 0 0 3.088 3.088h23.64a3.086 3.086 0 0 0 3.088-3.088V5.18a3.086 3.086 0 0 0-3.088-3.088Zm2.245 26.682a2.287 2.287 0 0 1-2.291 2.29H5.226a2.287 2.287 0 0 1-2.29-2.29V5.226a2.291 2.291 0 0 1 2.29-2.29h23.548a2.287 2.287 0 0 1 2.29 2.29v23.548Z"/>
  <path fill="#37B29A" d="M21 11.318V9h-8v15h2.451v-6.233h4.693V15.45H15.45v-4.13H21Z"/>
</svg>
