<svg xmlns="http://www.w3.org/2000/svg" width="34" height="34" fill="none" viewBox="0 0 34 34">
  <path fill="#1BE333" d="M17 29.546a2.905 2.905 0 1 1 0-5.81 2.905 2.905 0 0 1 0 5.81Zm0-4.722a1.817 1.817 0 1 0 0 3.635 1.817 1.817 0 0 0 0-3.636v.001Zm1.364-1.313a.541.541 0 0 1-.384-.16 1.387 1.387 0 0 0-1.96 0 .544.544 0 0 1-.769 0l-3.385-3.383a.545.545 0 0 1 0-.77 1.387 1.387 0 0 0 0-1.96.545.545 0 0 1 0-.77l3.384-3.384a.544.544 0 0 1 .77 0 1.387 1.387 0 0 0 1.96 0 .544.544 0 0 1 .768 0l3.386 3.385a.544.544 0 0 1 0 .769 1.386 1.386 0 0 0 0 1.96.545.545 0 0 1 0 .769L18.75 23.35a.542.542 0 0 1-.386.16ZM17 21.858c.468-.001.927.131 1.322.382l2.7-2.7a2.482 2.482 0 0 1 0-2.644l-2.7-2.7a2.479 2.479 0 0 1-2.644 0l-2.7 2.702a2.483 2.483 0 0 1 0 2.645l2.7 2.699A2.456 2.456 0 0 1 17 21.858Z"/>
  <path fill="#1BE333" d="M17 20.277a2.06 2.06 0 1 1 0-4.118 2.06 2.06 0 0 1 0 4.118Zm0-3.03a.97.97 0 1 0 0 1.942.97.97 0 0 0 0-1.941Z"/>
  <path fill="#1BE333" d="M15.062 25.837a.542.542 0 0 1-.389-.164L3.011 13.746a.544.544 0 0 1-.06-.688c1.914-2.795 4.123-4.96 6.567-6.433 2.386-1.44 4.904-2.171 7.482-2.171 2.579 0 5.096.73 7.482 2.17 2.444 1.474 4.653 3.638 6.567 6.433a.544.544 0 0 1-.06.688L19.327 25.672a.544.544 0 0 1-.778-.76l11.347-11.605C26.341 8.296 21.776 5.542 17 5.542c-4.776 0-9.341 2.754-12.896 7.765L15.45 24.913a.544.544 0 0 1-.388.924Z"/>
  <path fill="#1BE333" d="M25.882 18.736a.544.544 0 0 1-.385-.16L17 10.08l-8.497 8.497a.543.543 0 1 1-.77-.77l8.883-8.881a.544.544 0 0 1 .768 0l8.882 8.882a.544.544 0 0 1-.384.929Z"/>
</svg>
