<svg xmlns="http://www.w3.org/2000/svg" width="34" height="34" fill="none" viewBox="0 0 34 34">
  <g clip-path="url(#a)">
    <path fill="#37B29A" d="M26.878 12.38a14.4 14.4 0 0 1 1.934 7.214c0 3.848-1.498 7.466-4.219 10.186A14.312 14.312 0 0 1 14.406 34 14.312 14.312 0 0 1 4.22 29.78 14.312 14.312 0 0 1 0 19.595c0-3.848 1.499-7.466 4.22-10.187a14.312 14.312 0 0 1 10.186-4.22 14.4 14.4 0 0 1 7.214 1.935.531.531 0 0 1-.533.919 13.335 13.335 0 0 0-6.68-1.79C7.047 6.25 1.061 12.235 1.061 19.593c0 7.357 5.986 13.343 13.344 13.343S27.75 26.953 27.75 19.595c0-2.35-.62-4.66-1.79-6.68a.53.53 0 1 1 .918-.534Zm6.966-5.603-4.508 4.508a.532.532 0 0 1-.513.137l-4.333-1.16-9.708 9.707a.53.53 0 0 1-.907-.375c0-.141.056-.276.156-.376l9.708-9.708-1.161-4.333a.532.532 0 0 1 .137-.513L27.223.156a.531.531 0 0 1 .889.238l1.161 4.333 4.333 1.161a.531.531 0 0 1 .238.889Zm-1.402-.1-3.74-1.003a.53.53 0 0 1-.376-.376l-1.002-3.74-3.64 3.64 1.08 4.037 4.038 1.082 3.64-3.64Zm-18.036 5.475c1.106 0 2.171.238 3.165.705a.531.531 0 0 0 .452-.961 8.43 8.43 0 0 0-3.617-.806c-4.689 0-8.504 3.815-8.504 8.504s3.815 8.504 8.504 8.504c4.69 0 8.504-3.815 8.504-8.504 0-1.264-.271-2.48-.806-3.617a.531.531 0 0 0-.961.452c.467.994.705 2.059.705 3.165 0 4.103-3.339 7.441-7.442 7.441s-7.441-3.338-7.441-7.441c0-4.104 3.338-7.442 7.441-7.442Z"/>
  </g>
  <defs>
    <clipPath id="a">
      <path fill="#fff" d="M0 0h34v34H0z"/>
    </clipPath>
  </defs>
</svg>
