<svg xmlns="http://www.w3.org/2000/svg" width="34" height="34" fill="none" viewBox="0 0 34 34">
  <path fill="#37B29A" d="M14.52 26.92a1.77 1.77 0 0 1-.695-.144 1.734 1.734 0 0 1-1.075-1.622V8.844c0-.72.412-1.341 1.075-1.622a1.731 1.731 0 0 1 1.911.361l7.35 7.15a3.072 3.072 0 0 1-.021 4.552l-7.329 7.13c-.323.32-.76.501-1.215.503l-.002.002ZM14.514 8.5a.359.359 0 0 0-.294.155.331.331 0 0 0-.054.19v16.312c0 .206.147.29.208.316a.33.33 0 0 0 .373-.07l7.35-7.15a1.652 1.652 0 0 0 .019-2.483l-7.37-7.17a.323.323 0 0 0-.232-.1Z"/>
</svg>
