<svg xmlns="http://www.w3.org/2000/svg" width="32" height="22" fill="none" viewBox="0 0 32 22">
  <path fill="#37B29A" d="m20.89 9.897-7.162-4.144a1.324 1.324 0 0 0-1.99 1.148l-.005 8.274c-.003.473.25.912.662 1.148a1.326 1.326 0 0 0 1.327.002l7.169-4.133a1.325 1.325 0 0 0 0-2.295Zm-.64 1.19-3.578 2.069-3.66 2.019v-4.138l.078-4.18L20.25 11v.086ZM27.71.392c-.009-.01-.017-.022-.027-.032a.639.639 0 0 0-.958.842 15.449 15.449 0 0 1 0 19.594.637.637 0 1 0 .985.809 16.724 16.724 0 0 0 0-21.213Z"/>
  <path fill="#37B29A" d="M24.585 4.387a.639.639 0 0 0-1.006.785 9.587 9.587 0 0 1 0 11.732.637.637 0 0 0 1.005.784 10.863 10.863 0 0 0 .001-13.301ZM5.275 1.202l.027-.032A.638.638 0 1 0 4.29.394a16.722 16.722 0 0 0 0 21.212.638.638 0 0 0 .985-.81 15.449 15.449 0 0 1 0-19.594Z"/>
  <path fill="#37B29A" d="M8.31 4.277a.639.639 0 0 0-.895.11 10.864 10.864 0 0 0 0 13.301.633.633 0 0 0 .892.11.637.637 0 0 0 .113-.894 9.587 9.587 0 0 1 0-11.732.639.639 0 0 0-.11-.895Z"/>
</svg>
