<svg xmlns="http://www.w3.org/2000/svg" width="25" height="25" fill="none" viewBox="0 0 25 25">
  <path fill="#37B29A" d="M7.5 10.625a3.126 3.126 0 0 1 0-6.25 3.126 3.126 0 0 1 0 6.25ZM7.5 5a2.5 2.5 0 1 0-.001 4.999A2.5 2.5 0 0 0 7.5 5Zm.313-2.188v-2.5A.31.31 0 0 0 7.5 0a.31.31 0 0 0-.313.313v2.5a.31.31 0 0 0 .313.312.31.31 0 0 0 .313-.313Zm0 11.876v-2.5a.31.31 0 0 0-.313-.313.31.31 0 0 0-.313.313v2.5A.31.31 0 0 0 7.5 15a.31.31 0 0 0 .313-.313ZM3.125 7.5a.31.31 0 0 0-.313-.313h-2.5A.31.31 0 0 0 0 7.5a.31.31 0 0 0 .313.313h2.5a.31.31 0 0 0 .312-.313ZM15 7.5a.31.31 0 0 0-.313-.313h-2.5a.31.31 0 0 0-.312.313.31.31 0 0 0 .313.313h2.5A.31.31 0 0 0 15 7.5Zm-3.844-3.219 1.875-1.875a.31.31 0 0 0 0-.444.31.31 0 0 0-.444 0l-1.874 1.875a.31.31 0 0 0 0 .444.304.304 0 0 0 .437 0h.006Zm-8.75 8.75 1.875-1.875a.31.31 0 0 0 0-.444.31.31 0 0 0-.443 0l-1.876 1.876a.31.31 0 0 0 0 .443.303.303 0 0 0 .438 0h.006Zm1.875-8.75a.31.31 0 0 0 0-.443l-1.875-1.87a.31.31 0 0 0-.444 0 .31.31 0 0 0 0 .445l1.875 1.874a.303.303 0 0 0 .438 0l.006-.006Zm8.75 8.75a.31.31 0 0 0 0-.444l-1.875-1.874a.31.31 0 0 0-.444 0 .31.31 0 0 0 0 .443l1.876 1.875a.303.303 0 0 0 .437 0h.006Z"/>
</svg>
