<svg xmlns="http://www.w3.org/2000/svg" width="30" height="30" fill="none" viewBox="0 0 30 30">
  <path fill="#37B29A" d="M5.91 26.72c0-.522-.153-1.032-.44-1.467l.6-.595c2.656 1.684 5.843.383 8.93-1.402 9.196 5.556 13.233-.425 8.25-8.256 2.21-3.591 2.832-7.007 1.408-8.94l.6-.601A2.63 2.63 0 1 0 26.72.656a2.657 2.657 0 0 0-2.188 4.086l-.6.6C21.868 3.658 17.48 5.102 15 6.76a17.065 17.065 0 0 0-3.188-1.567C7.865 3.753 4.63 4.811 4.572 8.7c0 1.807.754 4.022 2.172 6.306-1.567 2.657-3.187 6.248-1.407 8.92l-.606.606A2.656 2.656 0 0 0 .656 26.72c.117 3.464 5.137 3.47 5.254 0Zm.898-2.806 3.974-3.968a26.72 26.72 0 0 0 3.246 2.656c-2.943 1.727-5.7 2.295-7.22 1.312Zm9.648-11.092a2.624 2.624 0 0 0-3.634 3.634l-2.04 2.034A24.088 24.088 0 0 1 7.972 15 25.612 25.612 0 0 1 15 7.966a24.706 24.706 0 0 1 3.496 2.81l-2.04 2.046Zm-2.912 4.356a2.624 2.624 0 0 0 3.634-3.634l2.045-2.04A25.319 25.319 0 0 1 22.028 15a24.798 24.798 0 0 1-3.187 3.878A24.623 24.623 0 0 1 15 22.018a23.566 23.566 0 0 1-3.49-2.8l2.034-2.04Zm10.296 1.344c2.157 5.993-2.205 7.438-7.868 4.101a27.457 27.457 0 0 0 6.657-6.667c.477.819.882 1.677 1.211 2.566Zm.531-9.844c0 1.493-.627 3.379-1.78 5.355a25.364 25.364 0 0 0-2.656-3.251l3.969-3.974c.34.563.51 1.213.488 1.87h-.02ZM18.522 6.16c1.976-.723 3.64-.723 4.67-.074l-3.974 3.968a25.138 25.138 0 0 0-3.267-2.656 15.99 15.99 0 0 1 2.571-1.238Zm-12.118.244c1.44-1.646 5.536-.387 7.645.973a25.75 25.75 0 0 0-3.634 3.038 25.7 25.7 0 0 0-3.033 3.623c-1.875-3.235-2.375-6.242-.978-7.634ZM6.16 18.522c.329-.889.734-1.747 1.211-2.566a25.12 25.12 0 0 0 2.656 3.262L6.06 23.187c-.622-1.026-.622-2.694.101-4.665Z"/>
</svg>
