<svg xmlns="http://www.w3.org/2000/svg" width="34" height="34" fill="none" viewBox="0 0 34 34">
  <g clip-path="url(#a)">
    <path fill="#ffffff" d="M17 34C7.626 34 0 26.374 0 17 0 7.626 7.626 0 17 0c9.374 0 17 7.626 17 17 0 9.374-7.626 17-17 17Zm0-32.583C8.408 1.417 1.417 8.407 1.417 17c0 8.592 6.99 15.583 15.583 15.583 8.592 0 15.583-6.99 15.583-15.583 0-8.592-6.99-15.583-15.583-15.583Z"/>
    <g clip-path="url(#b)">
      <path fill="#ffffff" d="M17 29c-6.617 0-12-5.383-12-12S10.383 5 17 5s12 5.383 12 12-5.383 12-12 12Zm0-23C10.935 6 6 10.935 6 17s4.935 11 11 11 11-4.935 11-11S23.065 6 17 6Z"/>
      <g clip-path="url(#c)">
        <path fill="#ffffff" d="M17 24c-3.86 0-7-3.14-7-7s3.14-7 7-7 7 3.14 7 7-3.14 7-7 7Zm0-13.417A6.424 6.424 0 0 0 10.583 17 6.424 6.424 0 0 0 17 23.417 6.424 6.424 0 0 0 23.417 17 6.424 6.424 0 0 0 17 10.583Z"/>
      </g>
    </g>
  </g>
  <defs>
    <clipPath id="a">
      <path fill="#fff" d="M0 0h34v34H0z"/>
    </clipPath>
    <clipPath id="b">
      <path fill="#fff" d="M5 5h24v24H5z"/>
    </clipPath>
    <clipPath id="c">
      <path fill="#fff" d="M10 10h14v14H10z"/>
    </clipPath>
  </defs>
</svg>
