<svg xmlns="http://www.w3.org/2000/svg" width="45" height="44" fill="none" viewBox="0 0 45 44">
  <path fill="#37B29A" d="M44.803.193A.705.705 0 0 0 44.297 0c-.444 0-11.252.172-18.03 5.343-2.814 2.131-6.611 6.078-10.387 10.561-3.228-.777-6.632-.976-9.95 1.974L.302 23.413a.684.684 0 0 0-.182.618.683.683 0 0 0 .436.482l6.99 2.489-.134.192a.675.675 0 0 0-.091.482 12.304 12.304 0 0 0 3.337 5.885 12.733 12.733 0 0 0 5.994 3.308.598.598 0 0 0 .155 0c.131 0 .26-.036.373-.103l.197-.131 2.545 6.835a.709.709 0 0 0 .492.426h.148c.181 0 .355-.07.485-.193l5.668-5.528c3.003-3.218 2.813-6.553 2.004-9.702 4.6-3.72 8.636-7.433 10.816-10.155C44.824 11.689 45 1.12 45 .688a.674.674 0 0 0-.197-.495ZM1.99 23.626l4.88-4.772c2.51-2.242 5.07-2.413 8.045-1.795a124.584 124.584 0 0 0-6.638 8.801L1.99 23.626ZM25.746 37.26l-4.923 4.813-2.285-6.147a127.05 127.05 0 0 0 9-6.491c.648 2.88.472 5.39-1.792 7.825ZM38.46 17.499c-2.18 2.716-6.266 6.491-10.9 10.197a124.552 124.552 0 0 1-10.872 7.811 11.115 11.115 0 0 1-5.106-2.83 10.745 10.745 0 0 1-2.903-4.988 121.885 121.885 0 0 1 7.981-10.623c3.805-4.545 7.665-8.54 10.443-10.671a19.625 19.625 0 0 1 4.486-2.503c.978 2.214 3.7 7.055 9.424 9.241A19.063 19.063 0 0 1 38.46 17.5Zm3.024-5.61c-5.197-1.987-7.736-6.388-8.622-8.45a40.735 40.735 0 0 1 10.731-2.064 38.206 38.206 0 0 1-2.11 10.514Z"/>
  <path fill="#37B29A" d="M25.057 11.69a5.506 5.506 0 0 0-1.562 2.836 5.428 5.428 0 0 0 .316 3.207 5.57 5.57 0 0 0 2.087 2.494 5.76 5.76 0 0 0 3.153.936 5.76 5.76 0 0 0 3.153-.936 5.57 5.57 0 0 0 2.087-2.494 5.428 5.428 0 0 0 .316-3.207 5.506 5.506 0 0 0-1.562-2.837 5.735 5.735 0 0 0-3.994-1.61 5.734 5.734 0 0 0-3.994 1.61Zm7.032 6.875a4.38 4.38 0 0 1-5.435.526 4.217 4.217 0 0 1-1.729-2.278 4.121 4.121 0 0 1 .143-2.832 4.244 4.244 0 0 1 1.948-2.101 4.39 4.39 0 0 1 2.87-.416 4.32 4.32 0 0 1 2.486 1.46 4.153 4.153 0 0 1-.27 5.641h-.013ZM1.16 38.12l5.514-5.39a.695.695 0 0 0 .333-.505.673.673 0 0 0-.2-.568.705.705 0 0 0-.579-.198.714.714 0 0 0-.518.322L.19 37.178a.68.68 0 0 0 0 .942.712.712 0 0 0 .97 0Zm6.175-1.292a.712.712 0 0 0-.97 0L.851 42.224a.675.675 0 0 0 .108.837.71.71 0 0 0 .855.105l5.52-5.39a.68.68 0 0 0 0-.95Zm4.19.646-5.512 5.39a.68.68 0 0 0 0 .95.712.712 0 0 0 .963 0l5.52-5.398a.675.675 0 0 0-.105-.845.71.71 0 0 0-.865-.097Z"/>
</svg>
