<svg xmlns="http://www.w3.org/2000/svg" width="35" height="35" fill="none" viewBox="0 0 35 35">
  <g clip-path="url(#a)">
    <path fill="#37B29A" d="M34.727 11.483h-4.922V10.39a.89.89 0 0 0-.08-.386c-.052-.103-.121-.16-.194-.16-.072 0-.142.057-.193.16a.89.89 0 0 0-.08.386v1.093h-4.922c-.073 0-.142.058-.193.16a.89.89 0 0 0-.08.386.89.89 0 0 0 .08.387c.05.102.12.16.193.16h4.922v1.64h-.547c-.218 0-.426.172-.58.48-.154.307-.24.724-.24 1.159v1.093h-6.016l-.156-.776c-.183-.91-.498-1.69-.905-2.24-.407-.549-.887-.842-1.378-.842H15.55c-.49 0-.97.293-1.377.842-.407.55-.723 1.33-.906 2.24l-.142.776H7.109v-1.093c0-.435-.086-.852-.24-1.16-.154-.307-.362-.48-.58-.48h-.547v-1.639h4.922c.073 0 .142-.058.193-.16a.89.89 0 0 0 .08-.386.89.89 0 0 0-.08-.387c-.05-.102-.12-.16-.193-.16H5.742V10.39a.89.89 0 0 0-.08-.386c-.051-.103-.12-.16-.193-.16-.073 0-.142.057-.194.16a.89.89 0 0 0-.08.386v1.093H.273c-.072 0-.142.058-.193.16a.89.89 0 0 0-.08.386.89.89 0 0 0 .08.387c.051.102.12.16.193.16h4.922v1.64h-.547c-.217 0-.426.172-.58.48-.153.307-.24.724-.24 1.159v3.278c0 .435.087.852.24 1.16.154.307.363.48.58.48h.547v1.093a.89.89 0 0 0 .08.386c.052.103.121.16.194.16.072 0 .142-.057.193-.16a.89.89 0 0 0 .08-.386v-1.093h.547c.218 0 .426-.173.58-.48.154-.308.24-.725.24-1.16v-1.092h5.78l-.232 1.163a5.28 5.28 0 0 0-.082 1.448c-.772.831-1.351 2.231-1.616 3.902l-1.452 9.88H8.75c-.073 0-.142.058-.193.16a.89.89 0 0 0-.08.386.89.89 0 0 0 .08.387c.05.102.12.16.193.16h1.86c.072 0 .141-.058.193-.16a.89.89 0 0 0 .08-.387.89.89 0 0 0-.08-.386c-.052-.102-.121-.16-.194-.16h-.533l1.408-9.563c.215-1.347.675-2.483 1.288-3.186l.022.071c.125.37.293.672.49.882.197.21.416.32.64.32h7.153c.223 0 .443-.11.64-.319.198-.21.366-.513.492-.883a.607.607 0 0 1 .019-.065c.612.698 1.071 1.828 1.288 3.17l1.397 9.573h-.547c-.072 0-.142.058-.193.16a.89.89 0 0 0-.08.386.89.89 0 0 0 .08.387c.05.102.12.16.193.16h1.884c.073 0 .142-.058.193-.16a.89.89 0 0 0 .08-.387.89.89 0 0 0-.08-.386c-.05-.102-.12-.16-.193-.16h-.768l-1.452-9.89c-.265-1.661-.841-3.052-1.608-3.88a5.205 5.205 0 0 0-.08-1.46l-.235-1.163h5.784v1.092c0 .435.086.852.24 1.16.154.307.362.48.58.48h.547v1.093a.89.89 0 0 0 .08.386c.051.103.12.16.193.16.073 0 .142-.057.194-.16a.89.89 0 0 0 .08-.386v-1.093h.547c.217 0 .426-.173.58-.48.153-.308.24-.725.24-1.16v-3.278c0-.435-.087-.852-.24-1.16-.154-.307-.363-.48-.58-.48h-.547v-1.639h4.922c.072 0 .142-.058.193-.16a.89.89 0 0 0 .08-.386.89.89 0 0 0-.08-.387c-.051-.102-.12-.16-.193-.16Zm-28.164 7.65a.89.89 0 0 1-.08.387c-.052.102-.121.16-.194.16H4.65c-.073 0-.143-.058-.194-.16a.89.89 0 0 1-.08-.387v-3.278a.89.89 0 0 1 .08-.387c.051-.102.12-.16.193-.16H6.29c.073 0 .142.058.193.16a.89.89 0 0 1 .08.387v3.278Zm12.416-4.95-.404 1.639a1.111 1.111 0 0 1-.203.425c-.086.102-.184.156-.284.154h-1.176c-.101-.001-.2-.058-.286-.165a1.158 1.158 0 0 1-.2-.441l-.405-1.64 2.958.027Zm2.776 6.961a1.438 1.438 0 0 1-.293.533c-.119.126-.251.191-.385.189h-7.154c-.134 0-.266-.067-.384-.193a1.456 1.456 0 0 1-.295-.53 2.826 2.826 0 0 1-.136-.744 3.17 3.17 0 0 1 .055-.785l.613-3.033c.135-.663.36-1.237.65-1.658.29-.42.633-.669.99-.719l.523 2.082c.09.362.23.666.4.88.173.212.37.326.573.328h1.176c.203 0 .401-.114.574-.327.172-.214.311-.518.402-.88l.522-2.072c.358.05.7.3.991.72.29.42.515.994.65 1.657l.613 3.033c.048.248.066.516.051.78a2.814 2.814 0 0 1-.136.74Zm8.87-5.29v3.28a.89.89 0 0 1-.08.386c-.051.102-.12.16-.193.16H28.71c-.073 0-.142-.058-.193-.16a.89.89 0 0 1-.08-.387v-3.278a.89.89 0 0 1 .08-.387c.05-.102.12-.16.193-.16h1.64c.073 0 .143.058.194.16a.89.89 0 0 1 .08.387Z"/>
    <path fill="#37B29A" d="M15.04 19.68c.301 0 .546-.49.546-1.093 0-.604-.245-1.093-.547-1.093-.302 0-.547.49-.547 1.093 0 .604.245 1.093.547 1.093Zm4.92 0c.303 0 .548-.49.548-1.093 0-.604-.245-1.093-.547-1.093-.302 0-.547.49-.547 1.093 0 .604.245 1.093.547 1.093Zm-.182 16.798c-.126 0-.251.021-.375.065-.238-.937-.622-1.693-1.094-2.156-.472-.463-1.006-.607-1.522-.41-.517.196-.987.723-1.34 1.5-.354.778-.572 1.763-.621 2.81h-.06a.984.984 0 0 0-.628.249c-.2.165-.38.406-.533.71a4.381 4.381 0 0 0-.355 1.064 6.224 6.224 0 0 0-.125 1.255c0 .43.042.857.125 1.255.082.398.203.759.355 1.063.153.305.334.546.533.711.199.165.412.25.628.25h5.012c.553 0 1.084-.44 1.475-1.221.391-.782.611-1.843.611-2.949 0-1.105-.22-2.166-.611-2.948s-.922-1.221-1.475-1.221v-.027Zm0 7.245h-5.012c-.29 0-.569-.23-.774-.64-.205-.41-.32-.966-.32-1.545 0-.58.115-1.136.32-1.546.205-.41.483-.64.774-.64h.328a.163.163 0 0 0 .107-.042.367.367 0 0 0 .09-.122.901.901 0 0 0 .076-.383v-.109c.003-.873.158-1.717.438-2.386.281-.67.67-1.122 1.1-1.28.43-.157.873-.01 1.255.417.381.427.676 1.107.833 1.921a.562.562 0 0 0 .135.292c.062.06.133.07.199.03a.886.886 0 0 1 .453-.13c.409 0 .8.324 1.089.9.289.578.45 1.36.45 2.176 0 .816-.161 1.599-.45 2.175-.289.578-.68.902-1.088.902l-.003.01Zm-3.919-11.475c.073 0 .142-.057.194-.16a.89.89 0 0 0 .08-.386v-4.694l.626 1.257a.364.364 0 0 0 .089.12.164.164 0 0 0 .105.041.164.164 0 0 0 .105-.042.367.367 0 0 0 .09-.12.729.729 0 0 0 .06-.177 1.036 1.036 0 0 0 0-.42.729.729 0 0 0-.06-.178l-1.095-2.186a.347.347 0 0 0-.09-.115c-.066-.055-.141-.055-.207 0a.346.346 0 0 0-.09.115l-1.095 2.186a.894.894 0 0 0-.08.387c0 .146.029.286.08.389.052.102.122.16.195.16.072 0 .142-.058.194-.16l.626-1.257v4.694a.89.89 0 0 0 .08.386c.051.102.12.16.193.16Zm3.282-7.104c-.073 0-.142.058-.194.16a.89.89 0 0 0-.08.387v4.694l-.626-1.257c-.052-.103-.121-.16-.194-.16-.073 0-.143.057-.194.16a.894.894 0 0 0-.08.388c0 .145.028.285.08.388l1.093 2.186c.026.05.057.088.09.114a.157.157 0 0 0 .105.044.157.157 0 0 0 .104-.044.346.346 0 0 0 .09-.114l1.093-2.186a.894.894 0 0 0 .08-.388.894.894 0 0 0-.08-.388c-.051-.103-.12-.16-.194-.16-.072 0-.142.057-.194.16l-.626 1.257V25.69a.89.89 0 0 0-.08-.387c-.051-.102-.12-.16-.193-.16Z"/>
  </g>
  <defs>
    <clipPath id="a">
      <path fill="#fff" d="M0 0h35v35H0z"/>
    </clipPath>
  </defs>
</svg>
