<svg xmlns="http://www.w3.org/2000/svg" width="34" height="45" fill="none" viewBox="0 0 34 45">
  <path fill="#00DFB2" d="M29.75 5.625H4.25c-.939.001-1.84.496-2.503 1.375-.664.878-1.038 2.07-1.039 3.313v24.374C.71 35.93 1.083 37.123 1.747 38c.664.88 1.564 1.373 2.503 1.375h25.5c.939-.002 1.84-.496 2.503-1.375.664-.878 1.038-2.07 1.039-3.313V10.314C33.29 9.07 32.917 7.877 32.253 7c-.664-.88-1.564-1.374-2.503-1.375Zm2.125 29.063c0 .745-.225 1.46-.623 1.987-.398.528-.939.824-1.502.825H4.25c-.563 0-1.104-.297-1.502-.825-.398-.527-.622-1.242-.623-1.987V10.311c0-.745.225-1.46.623-1.987.398-.528.939-.824 1.502-.825h25.5c.563 0 1.104.297 1.502.825.398.527.622 1.242.623 1.988v24.374ZM9.208 11.25c0 .249-.074.487-.207.663-.133.176-.313.274-.501.274H5.667v3.75c0 .25-.075.488-.208.663-.133.176-.313.275-.5.275-.189 0-.369-.099-.502-.275a1.11 1.11 0 0 1-.207-.663V11.25c0-.249.075-.487.207-.663.133-.176.313-.274.501-.274H8.5a.63.63 0 0 1 .5.274c.134.176.208.414.208.663Zm20.542 0v4.688c0 .248-.075.487-.207.662-.133.176-.313.275-.501.275s-.368-.099-.501-.275a1.11 1.11 0 0 1-.208-.663v-3.75H25.5a.63.63 0 0 1-.5-.274 1.11 1.11 0 0 1-.208-.663c0-.249.074-.487.207-.663.133-.176.313-.274.501-.274h3.542a.63.63 0 0 1 .5.274c.133.176.208.414.208.663ZM9.208 33.75c0 .249-.074.487-.207.663-.133.176-.313.275-.501.275H4.958c-.188 0-.368-.1-.5-.275a1.11 1.11 0 0 1-.208-.663v-4.688c0-.248.075-.487.207-.662.133-.176.313-.275.501-.275s.368.099.501.275c.133.175.208.414.208.663v3.75H8.5a.63.63 0 0 1 .5.274c.134.176.208.414.208.663Zm20.542-4.688v4.688c0 .249-.075.487-.207.663-.133.176-.313.275-.501.275H25.5c-.188 0-.368-.1-.5-.275a1.11 1.11 0 0 1-.208-.663c0-.249.074-.487.207-.663.133-.176.313-.275.501-.275h2.833v-3.75c0-.248.075-.487.208-.662.133-.176.313-.275.5-.275.189 0 .369.099.502.275.132.175.207.414.207.663ZM14.092 18.331a.89.89 0 0 0-.269-.35.604.604 0 0 0-.365-.128.604.604 0 0 0-.364.128.89.89 0 0 0-.27.35l-2.833 7.5c-.084.223-.098.48-.038.716.06.236.187.43.355.542a.55.55 0 0 0 .541.05c.179-.078.326-.247.41-.47l.511-1.357h3.375l.512 1.357c.084.223.231.392.41.47.178.08.372.061.54-.05a.908.908 0 0 0 .356-.542c.06-.236.046-.494-.038-.716l-2.833-7.5Zm-1.613 5.107.98-2.592.978 2.591H12.48Zm7.354-3.75v1.875h2.125c.188 0 .368.098.501.274.133.176.208.414.208.663 0 .249-.075.487-.208.663-.133.176-.313.274-.5.274h-2.126v2.813c0 .249-.074.487-.207.663-.133.176-.313.274-.501.274s-.368-.098-.5-.274a1.11 1.11 0 0 1-.208-.663v-7.5c0-.249.074-.487.207-.663.133-.176.313-.274.501-.274h2.833c.188 0 .368.098.501.274.133.176.208.414.208.663 0 .249-.075.487-.208.663-.133.176-.313.274-.5.274h-2.126Z"/>
</svg>
