<svg xmlns="http://www.w3.org/2000/svg" width="34" height="34" fill="none" viewBox="0 0 34 34">
  <g clip-path="url(#a)">
    <path fill="#37B29A" d="M17 0a.74.74 0 0 0-.74.74v5.912a.74.74 0 0 0 1.48 0V.74A.74.74 0 0 0 17 0Z"/>
    <path fill="#37B29A" d="M17 2.957C9.257 2.957 2.956 9.257 2.956 17c0 7.743 6.3 14.044 14.044 14.044 7.743 0 14.044-6.3 14.044-14.044 0-7.743-6.3-14.043-14.044-14.043Zm0 26.608C10.071 29.565 4.435 23.93 4.435 17 4.435 10.071 10.07 4.435 17 4.435c6.928 0 12.565 5.636 12.565 12.565 0 6.928-5.636 12.565-12.565 12.565Z"/>
    <path fill="#37B29A" d="M17 26.609a.74.74 0 0 0-.74.739v5.913a.74.74 0 0 0 1.48 0v-5.913a.74.74 0 0 0-.74-.74ZM6.652 16.26H.74a.74.74 0 0 0 0 1.478h5.913a.74.74 0 0 0 0-1.478Zm26.609 0h-5.913a.74.74 0 0 0 0 1.478h5.913a.74.74 0 0 0 0-1.478ZM17 13.304a.74.74 0 0 0-.74.74v5.912a.74.74 0 0 0 1.48 0v-5.912a.74.74 0 0 0-.74-.74Z"/>
    <path fill="#37B29A" d="M19.956 16.26h-5.912a.74.74 0 0 0 0 1.48h5.912a.74.74 0 0 0 0-1.48Z"/>
  </g>
  <defs>
    <clipPath id="a">
      <path fill="#fff" d="M0 0h34v34H0z"/>
    </clipPath>
  </defs>
</svg>
