<svg xmlns="http://www.w3.org/2000/svg" width="32" height="32" fill="none" viewBox="0 0 32 32">
  <path fill="#37B29A" d="M16.372 15.575a.514.514 0 0 0-.744 0L.7 30.503a.514.514 0 0 0 0 .744.514.514 0 0 0 .744 0L16 16.69l14.556 14.556c.107.106.266.16.372.16a.574.574 0 0 0 .372-.16.514.514 0 0 0 0-.744L16.372 15.575Z"/>
  <path fill="#37B29A" d="M1.444 16.372 16 1.816l14.556 14.556c.107.106.266.16.372.16a.574.574 0 0 0 .372-.16.514.514 0 0 0 0-.744L16.372.7a.514.514 0 0 0-.744 0L.7 15.628a.514.514 0 0 0 0 .744.514.514 0 0 0 .744 0Z"/>
</svg>
