<svg xmlns="http://www.w3.org/2000/svg" width="50" height="50" fill="none" viewBox="0 0 50 50">
  <g clip-path="url(#a)">
    <path fill="#00DFB2" fill-rule="evenodd" d="M33.198 45.221a1.23 1.23 0 0 1 0-2.459 1.23 1.23 0 0 1 0 2.459Zm13.088-2.049h-10.34a2.873 2.873 0 0 0-2.748-2.049 2.875 2.875 0 0 0-2.75 2.05h-2.765a.82.82 0 0 0 0 1.638h2.765a2.873 2.873 0 0 0 2.75 2.05 2.872 2.872 0 0 0 2.749-2.05h10.34a.819.819 0 1 0 0-1.639ZM32.201 30.988c-.677 0-1.23-.552-1.23-1.23 0-.677.553-1.23 1.23-1.23a1.23 1.23 0 0 1 0 2.459Zm14.085-2.05H34.95a2.874 2.874 0 0 0-2.75-2.049 2.873 2.873 0 0 0-2.748 2.05h-1.769a.82.82 0 0 0 0 1.639h1.769a2.872 2.872 0 0 0 2.749 2.049 2.873 2.873 0 0 0 2.749-2.05h11.336a.819.819 0 1 0 0-1.638Zm-5.739 9.1a1.23 1.23 0 0 1-1.23-1.23c0-.677.553-1.229 1.23-1.229a1.23 1.23 0 0 1 0 2.459Zm5.74-2.05h-2.99a2.874 2.874 0 0 0-2.75-2.048 2.874 2.874 0 0 0-2.749 2.049H27.683a.82.82 0 1 0 0 1.64h10.115a2.874 2.874 0 0 0 2.749 2.048 2.874 2.874 0 0 0 2.75-2.049h2.99a.819.819 0 1 0 0-1.64ZM50 46.79V26.827c0-1.77-1.44-3.21-3.21-3.21H27.18a3.213 3.213 0 0 0-3.21 3.21V46.79c0 1.77 1.439 3.21 3.21 3.21h19.61c1.77 0 3.21-1.44 3.21-3.21Zm-29.48-1.196h1.81V34.98c-6.532-.247-11.725-5.642-11.725-12.183 0-6.723 5.47-12.193 12.192-12.193 6.405 0 11.739 4.99 12.164 11.374h10.633v-1.459l-3.818-1.47a19.165 19.165 0 0 0-2.91-7.02l1.662-3.74-3.221-3.222-3.743 1.661a19.166 19.166 0 0 0-7.019-2.908L25.075 0H20.52l-1.472 3.819a19.173 19.173 0 0 0-7.017 2.91L8.287 5.065 5.067 8.29l1.661 3.741a19.152 19.152 0 0 0-2.91 7.02L0 20.518v4.556l3.818 1.47a19.16 19.16 0 0 0 2.91 7.02l-1.661 3.741 3.22 3.223 3.744-1.663a19.161 19.161 0 0 0 7.018 2.91l1.47 3.818Z" clip-rule="evenodd"/>
  </g>
  <defs>
    <clipPath id="a">
      <path fill="#fff" d="M0 0h50v50H0z"/>
    </clipPath>
  </defs>
</svg>
