<svg xmlns="http://www.w3.org/2000/svg" width="19" height="27" fill="none" viewBox="0 0 19 27">
  <path fill="#3BBDAE" d="M5.27 16.676c-.358 0-.7.134-.954.372a1.238 1.238 0 0 0-.396.898v1.43H1.458c-.327 0-.64.122-.871.34a1.128 1.128 0 0 0-.362.82v4.46c0 .308.13.603.362.82.231.218.544.34.871.34h16.309c.327 0 .64-.123.871-.34a1.13 1.13 0 0 0 .362-.82v-4.46c0-.308-.13-.603-.361-.82a1.274 1.274 0 0 0-.872-.34h-2.462v-1.43c0-.7-.606-1.27-1.35-1.27h-2.383V9.43c1.696-.72 2.816-2.328 2.816-4.093 0-2.478-2.143-4.494-4.778-4.494-2.634 0-4.773 2.016-4.773 4.494 0 1.77 1.12 3.379 2.815 4.094v7.244H5.27Zm3.28-6.959c.028.006.056.008.084.014.11.021.223.039.336.053.05.006.098.014.148.019.163.015.327.025.493.025.164 0 .328-.01.49-.025.048-.005.095-.012.143-.018.116-.015.231-.033.347-.055.028-.006.057-.008.085-.014v6.96H8.55v-6.96ZM5.734 5.338c0-2.013 1.74-3.65 3.877-3.65 2.137 0 3.88 1.637 3.88 3.65a3.515 3.515 0 0 1-.696 2.078 3.87 3.87 0 0 1-1.827 1.34c-.067.022-.135.04-.203.06a4.182 4.182 0 0 1-1.84.111 3.884 3.884 0 0 1-.668-.172C6.748 8.23 5.735 6.856 5.735 5.338Zm12.37 15.198v4.46a.307.307 0 0 1-.1.224.347.347 0 0 1-.237.093H1.458a.347.347 0 0 1-.237-.093.307.307 0 0 1-.099-.224v-4.46c0-.084.036-.165.099-.224a.347.347 0 0 1 .237-.093h16.309a.35.35 0 0 1 .238.093c.063.06.098.14.098.224Zm-3.695-2.59v1.43H4.817v-1.43c0-.235.203-.426.453-.426h8.685c.25 0 .454.19.454.426Z"/>
</svg>
