<svg xmlns="http://www.w3.org/2000/svg" width="26" height="34" fill="none" viewBox="0 0 26 34">
  <path fill="#3BBDAE" d="M6.987 21.266c-.496 0-.971.18-1.322.5-.35.32-.548.753-.548 1.206v1.92h-3.41c-.452 0-.886.165-1.206.457-.32.292-.5.688-.501 1.101v5.992c0 .413.18.809.5 1.101.32.292.755.456 1.208.457h22.584c.453 0 .887-.165 1.207-.457.32-.292.5-.688.501-1.101V26.45c0-.413-.18-.81-.5-1.101a1.795 1.795 0 0 0-1.208-.457h-3.409v-1.92c0-.941-.839-1.706-1.87-1.706h-3.3v-9.731c2.349-.968 3.9-3.127 3.9-5.498C19.613 2.708 16.645 0 12.997 0c-3.648 0-6.61 2.708-6.61 6.037 0 2.377 1.552 4.538 3.899 5.499v9.73h-3.3Zm4.541-9.347c.039.008.078.011.117.018.153.03.308.053.464.072.07.008.137.018.206.025.225.02.453.034.683.034.227 0 .454-.013.679-.034.066-.007.131-.016.197-.024.16-.02.32-.044.48-.074.04-.008.08-.01.119-.018v9.347h-2.944V11.92ZM7.63 6.037c0-2.704 2.409-4.904 5.369-4.904s5.373 2.2 5.373 4.904a4.63 4.63 0 0 1-.963 2.791 5.352 5.352 0 0 1-2.53 1.799c-.093.03-.188.055-.283.082a5.965 5.965 0 0 1-2.546.149 5.515 5.515 0 0 1-.926-.231c-2.09-.707-3.493-2.55-3.493-4.59ZM24.758 26.45v5.992c0 .112-.05.22-.136.3a.49.49 0 0 1-.33.125H1.708a.49.49 0 0 1-.33-.125.407.407 0 0 1-.136-.3V26.45c0-.112.05-.22.136-.3a.49.49 0 0 1 .33-.125h22.584a.49.49 0 0 1 .33.125c.087.08.136.188.136.3Zm-5.116-3.479v1.921H6.359v-1.92c0-.316.282-.573.628-.573h12.026c.346 0 .629.257.629.572Z"/>
</svg>
