<svg xmlns="http://www.w3.org/2000/svg" width="38" height="38" fill="none" viewBox="0 0 38 38">
  <path fill="#37B29A" d="M9.5 14.918a2.375 2.375 0 1 0-4.75 0 2.375 2.375 0 0 0 4.75 0Zm-3.563 0a1.188 1.188 0 1 1 2.376 0 1.188 1.188 0 0 1-2.376 0Z"/>
  <path fill="#37B29A" d="M6.701 24.749a.593.593 0 0 0 .848 0 43.24 43.24 0 0 0 3.015-3.488c2.052-2.658 3.092-4.764 3.092-6.258a6.531 6.531 0 0 0-13.062 0c0 1.494 1.04 3.6 3.092 6.258a43.253 43.253 0 0 0 3.015 3.488Zm.424-15.09a5.35 5.35 0 0 1 5.344 5.344c0 1.206-.982 3.116-2.838 5.523a43.452 43.452 0 0 1-2.508 2.946c-1.811-1.933-5.342-6.175-5.342-8.47A5.35 5.35 0 0 1 7.125 9.66Zm26.125 5.259a2.375 2.375 0 1 0-4.75 0 2.375 2.375 0 0 0 4.75 0Zm-3.563 0a1.187 1.187 0 1 1 2.375 0 1.187 1.187 0 0 1-2.374 0Z"/>
  <path fill="#37B29A" d="M30.451 24.749a.593.593 0 0 0 .848 0 43.244 43.244 0 0 0 3.015-3.488c2.052-2.658 3.092-4.764 3.092-6.258a6.531 6.531 0 0 0-13.062 0c0 1.494 1.04 3.6 3.092 6.258a43.263 43.263 0 0 0 3.015 3.488Zm.424-15.09a5.35 5.35 0 0 1 5.344 5.344c0 1.206-.982 3.116-2.838 5.523a43.457 43.457 0 0 1-2.508 2.946c-1.812-1.933-5.342-6.175-5.342-8.47a5.35 5.35 0 0 1 5.344-5.343Zm5.938 17.654h-4.26a1.78 1.78 0 0 0-3.357 0H8.804a1.781 1.781 0 0 0-3.358 0H1.188a.594.594 0 0 0 0 1.187h4.258a1.78 1.78 0 0 0 3.358 0h20.392a1.78 1.78 0 0 0 3.358 0h4.258a.593.593 0 1 0 0-1.188ZM7.125 28.5a.593.593 0 1 1 0-1.187.593.593 0 0 1 0 1.187Zm23.75 0a.594.594 0 1 1 0-1.187.594.594 0 0 1 0 1.187Z"/>
</svg>
