<svg xmlns="http://www.w3.org/2000/svg" version="1.1" xmlns:xlink="http://www.w3.org/1999/xlink" width="512" height="512" x="0" y="0" viewBox="0 0 25.6 25.6" style="enable-background:new 0 0 512 512" xml:space="preserve" fill-rule="evenodd"><g><linearGradient id="a"><stop offset="0" stop-color="#df9000"></stop><stop offset=".73" stop-color="#7f5200"></stop><stop offset=".99" stop-color="#37b29a"></stop><stop offset="1" stop-color="#37b29a"></stop></linearGradient><linearGradient id="b"><stop offset="0" stop-color="#37b29a"></stop><stop offset=".792" stop-color="#37b29a"></stop><stop offset=".99" stop-color="#37b29a"></stop><stop offset="1" stop-color="#37b29a"></stop></linearGradient><linearGradient id="c"><stop offset="0" stop-color="#37b29a"></stop><stop offset="1"></stop></linearGradient><g fill="#37b29a"><path d="M12.81 19.203a6.403 6.403 0 0 1 6.405-6.397c3.535 0 6.405 2.866 6.405 6.397S22.75 25.6 19.215 25.6a6.403 6.403 0 0 1-6.405-6.397zm6.406 3.095c.526 0 .96.395 1.025.903a4.073 4.073 0 0 0 1.131-.478 1.032 1.032 0 0 1 1.366-1.365c.214-.344.376-.725.48-1.13a1.033 1.033 0 0 1-.904-1.023c0-.525.395-.958.904-1.022a4.07 4.07 0 0 0-.48-1.13 1.033 1.033 0 0 1-1.366-1.365 4.108 4.108 0 0 0-1.131-.48 1.034 1.034 0 0 1-2.05 0 4.094 4.094 0 0 0-1.132.48 1.033 1.033 0 0 1-1.366 1.365 4.07 4.07 0 0 0-.48 1.13c.509.064.904.497.904 1.022 0 .527-.395.96-.905 1.024.104.404.267.785.48 1.13a1.033 1.033 0 0 1 1.366 1.365c.347.213.727.375 1.132.478.064-.51.499-.904 1.026-.904zm-1.669-3.09a1.668 1.668 0 0 1 3.336 0 1.667 1.667 0 0 1-3.336 0z" fill="#37b29a" opacity="1" data-original="#37b29a"></path><path d="M1.477 22.4H0V1.498C0 .679.667.013 1.488.013h19.44c.82 0 1.487.666 1.487 1.486v13.11a5.603 5.603 0 0 0-.798-.463V2.41H.8V21.6h13.349c.133.281.289.549.465.8H1.478z" fill="#37b29a" opacity="1" data-original="#37b29a"></path><path d="M1.6 7.207V3.21h19.216v3.997zm18.415-.798V4.01H2.401v2.398zM1.601 20.803V8.008h4.002v12.795zm3.203-.8V8.809H2.4v11.196zM6.404 20.802V8.01h14.412v5.83a5.572 5.572 0 0 0-.8-.175V8.807H7.204v11.196h6.462c.039.274.098.54.175.8z" fill="#37b29a" opacity="1" data-original="#37b29a"></path></g></g></svg>