<svg xmlns="http://www.w3.org/2000/svg" width="34" height="34" fill="none" viewBox="0 0 34 34">
  <g clip-path="url(#a)">
    <path fill="#00DFB2" d="M33.004 0h-5.977a.996.996 0 0 0 0 1.992h4.98v4.98a.996.996 0 0 0 1.993 0V.997A.996.996 0 0 0 33.004 0ZM6.973 0H.996A.996.996 0 0 0 0 .996v5.977a.996.996 0 0 0 1.992 0v-4.98h4.98a.996.996 0 0 0 0-1.993Zm0 32.008h-4.98v-4.98a.996.996 0 0 0-1.993 0v5.976c0 .55.446.996.996.996h5.977a.996.996 0 0 0 0-1.992Zm26.03-5.977a.996.996 0 0 0-.995.996v4.98h-4.98a.996.996 0 0 0 0 1.993h5.976c.55 0 .996-.446.996-.996v-5.977a.996.996 0 0 0-.996-.996ZM20.985 16.004h-2.988v-2.988a.996.996 0 0 0-1.992 0v2.988h-2.988a.996.996 0 0 0 0 1.992h2.988v2.988a.996.996 0 0 0 1.992 0v-2.988h2.988a.996.996 0 0 0 0-1.992Z"/>
  </g>
  <defs>
    <clipPath id="a">
      <path fill="#fff" d="M0 0h34v34H0z"/>
    </clipPath>
  </defs>
</svg>
