<svg xmlns="http://www.w3.org/2000/svg" width="50" height="50" fill="none" viewBox="0 0 50 50">
  <path fill="#00DFB2" d="M42.604 36.23a1.563 1.563 0 0 1-1.25-2.5c1.896-2.522 2.896-5.542 2.896-8.73 0-3.188-1-6.188-2.896-8.73a1.562 1.562 0 1 1 2.5-1.874A17.55 17.55 0 0 1 47.396 25c0 3.854-1.23 7.52-3.542 10.604a1.54 1.54 0 0 1-1.25.625Zm-5.062-4.876c-.438 0-.855-.187-1.167-.52a1.575 1.575 0 0 1 .125-2.209c.02-.02 1.146-1.125 1.146-3.625s-1.188-3.75-1.25-3.792a1.572 1.572 0 0 1 0-2.208c.604-.604 1.583-.625 2.187-.02.23.207 2.167 2.207 2.167 6.02 0 3.813-1.958 5.75-2.188 5.958a1.513 1.513 0 0 1-1.041.396h.02ZM7.396 36.23c-.48 0-.938-.208-1.25-.625A17.55 17.55 0 0 1 2.604 25c0-3.854 1.23-7.52 3.542-10.604a1.561 1.561 0 0 1 2.797.716 1.563 1.563 0 0 1-.297 1.159C6.75 18.79 5.75 21.812 5.75 25c0 3.188 1 6.188 2.896 8.73a1.563 1.563 0 0 1-1.25 2.5Zm5.042-4.896c-.355 0-.73-.125-1.021-.395-.23-.209-2.188-2.063-2.188-5.959 0-3.896 1.959-5.812 2.167-6.02a1.553 1.553 0 0 1 2.208.041 1.547 1.547 0 0 1-.02 2.188c-.084.083-1.23 1.333-1.23 3.791 0 2.459 1.104 3.584 1.167 3.646.604.583.646 1.563.083 2.188-.312.333-.729.5-1.146.5l-.02.02Zm19.812-9.5-9.75-5.562a3.672 3.672 0 0 0-3.646 0 3.587 3.587 0 0 0-1.812 3.146v11.145c0 1.313.687 2.5 1.812 3.146a3.625 3.625 0 0 0 3.646.021l9.75-5.562c1.146-.667 1.833-1.834 1.833-3.167 0-1.333-.687-2.5-1.833-3.167Z"/>
</svg>
