<svg xmlns="http://www.w3.org/2000/svg" width="34" height="34" fill="none" viewBox="0 0 34 34">
  <g clip-path="url(#a)">
    <path fill="#37B29A" d="M34 10.823V23.1a2.36 2.36 0 0 1-3.774 1.887l-3.31-3.296v.269a6.383 6.383 0 0 1-6.374 6.375H6.375A6.382 6.382 0 0 1 0 21.96v-9.917a6.383 6.383 0 0 1 6.375-6.375h14.167a6.383 6.383 0 0 1 6.375 6.375v.223l3.231-3.26c.798-.607 1.743-.693 2.549-.29A2.342 2.342 0 0 1 34 10.822Zm-8.5 1.219a4.964 4.964 0 0 0-4.958-4.959H6.375a4.964 4.964 0 0 0-4.958 4.959v9.916a4.964 4.964 0 0 0 4.958 4.959h14.167a4.964 4.964 0 0 0 4.958-4.959v-9.916Zm7.083-1.219a.927.927 0 0 0-.521-.843.93.93 0 0 0-.987.088l-4.16 4.208v5.413l4.235 4.23c.215.153.583.188.91.024a.926.926 0 0 0 .522-.843l.001-12.277Z"/>
    <path fill="#37B29A" d="M15.5 24C11.364 24 8 20.636 8 16.5S11.364 9 15.5 9c1.257 0 2.508.326 3.619.943l.485.27-.482.275c-2.2 1.256-3.622 3.493-3.622 5.7 0 2.811 2.096 5.015 4.174 5.952l.507.229-.458.314a7.442 7.442 0 0 1-4.222 1.316L15.5 24Zm0-14.375A6.883 6.883 0 0 0 8.625 16.5a6.883 6.883 0 0 0 6.875 6.875 6.799 6.799 0 0 0 3.41-.918c-2.083-1.132-4.035-3.41-4.035-6.27 0-2.258 1.339-4.538 3.453-5.944a6.829 6.829 0 0 0-2.828-.618Z"/>
  </g>
  <defs>
    <clipPath id="a">
      <path fill="#fff" d="M0 0h34v34H0z"/>
    </clipPath>
  </defs>
</svg>
