<svg xmlns="http://www.w3.org/2000/svg" width="38" height="38" fill="none" viewBox="0 0 38 38">
  <path fill="#37B29A" d="M19 35.625a16.625 16.625 0 0 0 14.709-24.373.594.594 0 0 0-1.049.557A15.393 15.393 0 0 1 34.438 19c-.847 20.477-30.03 20.477-30.876 0C3.42 7.551 16.15-.122 26.192 5.34a.594.594 0 0 0 .556-1.049A16.583 16.583 0 0 0 19 2.375c-22.052.911-22.052 32.34 0 33.25Z"/>
  <path fill="#37B29A" d="M19 14.25a4.63 4.63 0 0 1 1.51.252.594.594 0 0 0 .755-.368c.261-1.049-1.588-1.007-2.265-1.072-7.876.326-7.876 11.55 0 11.876A5.943 5.943 0 0 0 24.938 19c-.061-.689-.021-2.52-1.067-2.26a.594.594 0 0 0-.368.755c.165.484.249.993.247 1.505-.238 6.292-9.262 6.292-9.5 0A4.756 4.756 0 0 1 19 14.25Z"/>
  <path fill="#37B29A" d="M24.685 9.936a.596.596 0 0 0-.231-.807A11.275 11.275 0 0 0 19 7.719C4.036 8.337 4.036 29.663 19 30.28a11.275 11.275 0 0 0 9.871-16.735.594.594 0 0 0-1.039.576C31.596 20.65 26.541 29.224 19 29.094A10.105 10.105 0 0 1 8.906 19c-.13-7.54 8.444-12.596 14.972-8.832a.594.594 0 0 0 .807-.232Z"/>
  <path fill="#37B29A" d="m25.842 8.252.218 2.848-7.48 7.48a.594.594 0 0 0 .84.84l7.48-7.48 2.848.218a.594.594 0 0 0 .465-.173l4.321-4.32a.598.598 0 0 0-.374-1.013l-2.612-.2-.2-2.612a.598.598 0 0 0-1.012-.374l-4.321 4.321a.592.592 0 0 0-.173.465Zm4.42-3.034c.238 2.766-.23 2.279 2.52 2.52l-3.216 3.215-2.34-.18-.179-2.339 3.215-3.216Z"/>
</svg>
