<svg xmlns="http://www.w3.org/2000/svg" width="50" height="50" fill="none" viewBox="0 0 50 50">
  <g clip-path="url(#a)">
    <path fill="#37B29A" d="M32.292 12.5a5.216 5.216 0 0 0-5.209 5.208 5.216 5.216 0 0 0 5.209 5.209 5.216 5.216 0 0 0 5.208-5.209 5.216 5.216 0 0 0-5.208-5.208Zm0 8.333a3.129 3.129 0 0 1-3.125-3.125 3.129 3.129 0 0 1 3.125-3.125 3.129 3.129 0 0 1 3.125 3.125 3.129 3.129 0 0 1-3.125 3.125ZM50 5.208C50 2.338 47.663 0 44.763 0 34.467.294 25.088 5.317 17.448 14.585a21.986 21.986 0 0 0-9.552 2.323C3.1 19.315 0 24.535 0 30.208v1.042h10.417c2.225 0 4.318.867 5.893 2.44a8.285 8.285 0 0 1 2.44 5.893V50h1.042c5.673 0 10.893-3.098 13.3-7.894a21.965 21.965 0 0 0 2.323-9.554C44.68 24.912 49.706 15.532 50 5.208ZM8.83 18.771a19.888 19.888 0 0 1 6.91-2.002c-.206.276-.41.554-.61.833-3.236 4.515-5.65 9.758-6.443 11.565H2.123c.346-4.48 2.902-8.488 6.706-10.396Zm22.4 22.4c-1.911 3.804-5.918 6.36-10.397 6.706v-6.565c1.809-.791 7.05-3.206 11.567-6.441.281-.202.558-.404.833-.608a19.886 19.886 0 0 1-2.002 6.91l-.002-.002Zm-.045-7.994c-3.756 2.692-8.154 4.844-10.366 5.856-.13-2.57-1.212-5-3.036-6.814a10.34 10.34 0 0 0-6.814-3.036c1.012-2.212 3.164-6.61 5.856-10.366 5.319-7.423 14.494-16.35 27.967-16.734 1.723 0 3.125 1.402 3.125 3.096-.384 13.502-9.31 22.677-16.732 27.998ZM3.608 39.025C1.838 40.794.652 47.11.433 48.358l-.258 1.465 1.465-.258c1.248-.22 7.564-1.405 9.333-3.175a5.175 5.175 0 0 0 1.525-3.684c0-1.391-.542-2.7-1.525-3.683-1.965-1.967-5.4-1.965-7.365.002ZM9.5 44.917c-.804.804-4.03 1.73-6.723 2.304.573-2.694 1.5-5.919 2.304-6.723a3.106 3.106 0 0 1 2.21-.915 3.11 3.11 0 0 1 2.211.915c.592.59.915 1.375.915 2.21a3.11 3.11 0 0 1-.915 2.21l-.002-.001Z"/>
  </g>
  <defs>
    <clipPath id="a">
      <path fill="#fff" d="M0 0h50v50H0z"/>
    </clipPath>
  </defs>
</svg>
