<svg xmlns="http://www.w3.org/2000/svg" width="34" height="34" fill="none" viewBox="0 0 34 34">
  <g clip-path="url(#a)">
    <path fill="#37B29A" d="M33.851.149A.532.532 0 0 0 33.47 0c-.335 0-8.5.133-13.622 4.128-2.125 1.647-4.993 4.696-7.846 8.16-2.438-.6-5.01-.755-7.517 1.524L.234 18.09a.53.53 0 0 0-.138.478.531.531 0 0 0 .329.372l5.28 1.923-.1.149a.531.531 0 0 0-.07.372 9.562 9.562 0 0 0 7.05 7.103.44.44 0 0 0 .117 0 .54.54 0 0 0 .282-.08l.149-.101 1.923 5.28a.532.532 0 0 0 .372.33h.111a.53.53 0 0 0 .367-.149l4.281-4.271c2.269-2.486 2.125-5.063 1.515-7.496 3.474-2.874 6.523-5.743 8.17-7.846C33.867 9.03 34 .865 34 .53a.532.532 0 0 0-.149-.382ZM1.51 18.254l3.687-3.687c1.896-1.732 3.83-1.865 6.077-1.387a96.073 96.073 0 0 0-5.015 6.8l-4.75-1.726Zm17.945 10.534-3.718 3.72-1.727-4.75a96.08 96.08 0 0 0 6.8-5.015c.489 2.226.356 4.165-1.355 6.045ZM29.06 13.52c-1.646 2.099-4.733 5.015-8.234 7.879a94.15 94.15 0 0 1-8.213 6.035 8.346 8.346 0 0 1-6.051-6.04 94.038 94.038 0 0 1 6.03-8.208c2.874-3.512 5.79-6.598 7.889-8.245a14.738 14.738 0 0 1 3.39-1.934c.738 1.71 2.793 5.45 7.118 7.14a14.81 14.81 0 0 1-1.929 3.373Zm2.285-4.335C27.418 7.65 25.5 4.25 24.83 2.656a30.17 30.17 0 0 1 8.107-1.594 30.106 30.106 0 0 1-1.594 8.123Z"/>
    <path fill="#37B29A" d="M18.934 9.031a4.282 4.282 0 1 0 6.034 6.076 4.282 4.282 0 0 0-6.034-6.076Zm5.312 5.313a3.252 3.252 0 1 1 .951-2.295 3.246 3.246 0 0 1-.94 2.295h-.01ZM.882 29.453l4.165-4.165a.531.531 0 1 0-.728-.734l-4.17 4.17a.531.531 0 0 0 0 .729c.098.094.23.148.366.148a.532.532 0 0 0 .367-.148Zm4.664-1a.531.531 0 0 0-.733 0L.648 32.625a.531.531 0 0 0 .728.728l4.17-4.165a.531.531 0 0 0 0-.733Zm3.167.5-4.165 4.165a.531.531 0 0 0 0 .733.531.531 0 0 0 .727 0l4.17-4.17a.531.531 0 0 0-.732-.728Z"/>
  </g>
  <defs>
    <clipPath id="a">
      <path fill="#fff" d="M0 0h34v34H0z"/>
    </clipPath>
  </defs>
</svg>
