<svg xmlns="http://www.w3.org/2000/svg" width="15" height="15" fill="none" viewBox="0 0 15 15">
  <g clip-path="url(#a)">
    <path fill="#37B29A" d="M8.75 15c-4.136 0-7.5-3.364-7.5-7.5S4.614 0 8.75 0c1.257 0 2.508.326 3.619.942l.485.27-.482.275c-2.2 1.257-3.622 3.494-3.622 5.7 0 2.812 2.096 5.016 4.174 5.953l.507.229-.458.313A7.442 7.442 0 0 1 8.751 15H8.75Zm0-14.375A6.883 6.883 0 0 0 1.875 7.5a6.883 6.883 0 0 0 6.875 6.875 6.799 6.799 0 0 0 3.41-.918c-2.083-1.132-4.035-3.41-4.035-6.27 0-2.258 1.339-4.538 3.453-5.944A6.828 6.828 0 0 0 8.75.625Z"/>
  </g>
  <defs>
    <clipPath id="a">
      <path fill="#fff" d="M0 0h15v15H0z"/>
    </clipPath>
  </defs>
</svg>
