<svg xmlns="http://www.w3.org/2000/svg" width="34" height="34" fill="none" viewBox="0 0 34 34">
  <g clip-path="url(#a)">
    <path fill="#37B29A" d="M15.491 32.757c.148.361.014.758-.347.907l-.708.285a.715.715 0 0 1-.582-.024l-.602-.302C10.143 32.07 0 26.273 0 16.908V9.49a6.679 6.679 0 0 1 4.584-6.35l9.36-3.105a.722.722 0 0 1 .445 0l9.359 3.103a6.678 6.678 0 0 1 4.584 6.35v3.26a.708.708 0 1 1-1.417 0v-3.26a5.266 5.266 0 0 0-3.614-5.006l-9.136-3.03-9.134 3.031A5.267 5.267 0 0 0 1.417 9.49v7.417c0 8.553 9.542 13.987 12.468 15.449l.317.159.327-.134c.363-.147.813.016.962.377ZM34 24.791C34 29.87 29.869 34 24.792 34c-5.078 0-9.209-4.131-9.209-9.209 0-5.077 4.131-9.208 9.209-9.208 5.077 0 9.208 4.131 9.208 9.208Zm-1.417 0c0-4.295-3.495-7.791-7.791-7.791C20.495 17 17 20.496 17 24.79c0 4.296 3.495 7.792 7.792 7.792 4.296 0 7.791-3.496 7.791-7.792Zm-7.791 2.125a.708.708 0 0 0 .708-.708v-7.083a.708.708 0 1 0-1.417 0v7.083a.709.709 0 0 0 .709.708Zm0 1.417a1.417 1.417 0 1 0 0 2.834 1.417 1.417 0 0 0 0-2.834Z"/>
  </g>
  <defs>
    <clipPath id="a">
      <path fill="#fff" d="M0 0h34v34H0z"/>
    </clipPath>
  </defs>
</svg>
