<svg xmlns="http://www.w3.org/2000/svg" width="34" height="34" fill="none" viewBox="0 0 34 34">
  <path fill="#37B29A" d="m16.972 33.98-.887-.443C12.977 31.983 2.833 26.186 2.833 16.82V7.275c0-1.53.975-2.882 2.427-3.362L17 .02l11.74 3.893a3.539 3.539 0 0 1 2.427 3.362v9.545c0 10.624-10.16 15.538-13.275 16.79l-.92.37ZM17 1.513 5.706 5.257A2.122 2.122 0 0 0 4.25 7.275v9.545c0 8.554 9.543 13.988 12.468 15.45l.317.159.33-.132c2.905-1.169 12.385-5.74 12.385-15.475V7.273a2.124 2.124 0 0 0-1.455-2.017L17 1.513Z"/>
  <path fill="#37B29A" d="M14.876 21.25a2.12 2.12 0 0 1-1.504-.622l-4.658-4.536.987-1.016 4.665 4.543a.712.712 0 0 0 1.01.008l8.917-8.797.996 1.01-8.915 8.792a2.11 2.11 0 0 1-1.498.62v-.002Z"/>
</svg>
