<svg xmlns="http://www.w3.org/2000/svg" width="50" height="45" fill="none" viewBox="0 0 50 45">
  <path fill="#E31B1B" d="M9.688 28.709H6.32c-.621 0-1.217.222-1.657.618a2.01 2.01 0 0 0-.686 1.491v9.26c0 .56.247 1.096.686 1.491.44.396 1.036.618 1.657.618h3.367a2.489 2.489 0 0 0 1.656-.62c.439-.394.686-.93.688-1.489v-9.26a2.014 2.014 0 0 0-.688-1.49 2.489 2.489 0 0 0-1.655-.62Zm11.328-8.375h-3.368a2.489 2.489 0 0 0-1.655.62 2.01 2.01 0 0 0-.688 1.49v17.634c.002.56.25 1.095.688 1.49.44.395 1.034.618 1.655.62h3.368c.621 0 1.217-.223 1.656-.619a2.01 2.01 0 0 0 .687-1.49V22.443a2.01 2.01 0 0 0-.687-1.491 2.483 2.483 0 0 0-1.656-.619Zm11.336-9.14h-3.368a2.57 2.57 0 0 0-.897.16 2.372 2.372 0 0 0-.76.457 2.095 2.095 0 0 0-.509.684 1.93 1.93 0 0 0-.177.808v26.775c0 .56.247 1.096.687 1.491a2.477 2.477 0 0 0 1.656.618h3.368a2.489 2.489 0 0 0 1.655-.62c.439-.394.687-.93.688-1.489V13.303a2.01 2.01 0 0 0-.687-1.491 2.484 2.484 0 0 0-1.656-.618ZM43.68 2.812h-3.367a2.489 2.489 0 0 0-1.656.62c-.439.395-.686.93-.688 1.49v35.156c.002.56.25 1.095.688 1.49.44.395 1.035.618 1.656.62h3.367c.621 0 1.217-.223 1.657-.619a2.01 2.01 0 0 0 .686-1.49V4.921a2.01 2.01 0 0 0-.687-1.491 2.484 2.484 0 0 0-1.656-.619Z"/>
</svg>
