<svg xmlns="http://www.w3.org/2000/svg" width="34" height="34" fill="none" viewBox="0 0 34 34">
  <path fill="#E31B1B" d="M6.588 21.69h-2.29a1.595 1.595 0 0 0-1.594 1.595v6.996a1.595 1.595 0 0 0 1.594 1.594h2.29a1.599 1.599 0 0 0 1.593-1.594v-6.996a1.599 1.599 0 0 0-1.593-1.594Zm7.703-6.326H12a1.598 1.598 0 0 0-1.594 1.593v13.324A1.599 1.599 0 0 0 12 31.875h2.29a1.595 1.595 0 0 0 1.593-1.594V16.958a1.595 1.595 0 0 0-1.593-1.594Zm7.708-6.907h-2.29a1.59 1.59 0 0 0-1.593 1.594v20.23a1.595 1.595 0 0 0 1.593 1.594H22a1.599 1.599 0 0 0 1.594-1.594v-20.23A1.595 1.595 0 0 0 22 8.457Zm7.703-6.332h-2.29a1.598 1.598 0 0 0-1.593 1.594V30.28a1.598 1.598 0 0 0 1.594 1.594h2.29a1.595 1.595 0 0 0 1.593-1.594V3.72a1.594 1.594 0 0 0-1.594-1.594Z"/>
</svg>
