<svg xmlns="http://www.w3.org/2000/svg" width="51" height="36" fill="none" viewBox="0 0 51 36">
  <path fill="#37B39A" d="M20.004 13.873a.94.94 0 0 0 .327-.055.865.865 0 0 0 .277-.162.75.75 0 0 0 .186-.245.676.676 0 0 0 0-.577.75.75 0 0 0-.186-.244.865.865 0 0 0-.277-.162.943.943 0 0 0-.327-.055h-1.269v-1.124a.71.71 0 0 0-.247-.53.905.905 0 0 0-.6-.22.904.904 0 0 0-.598.22.71.71 0 0 0-.247.53v1.124h-1.269a.943.943 0 0 0-.326.055.864.864 0 0 0-.278.162.75.75 0 0 0-.185.244.676.676 0 0 0 0 .577.75.75 0 0 0 .185.245c.08.07.174.124.278.162a.94.94 0 0 0 .326.055h1.269v1.124c0 .199.089.39.247.53.16.14.374.22.599.22.224 0 .44-.08.599-.22a.71.71 0 0 0 .247-.53v-1.124h1.27Z"/>
  <path fill="#37B29A" d="M39.05 11.999c.467 0 .846-.336.846-.75 0-.415-.379-.75-.846-.75-.468 0-.847.335-.847.75 0 .414.38.75.847.75Zm0 3.749c.467 0 .846-.335.846-.75 0-.414-.379-.75-.846-.75-.468 0-.847.336-.847.75 0 .415.38.75.847.75Zm2.116-1.874c.467 0 .846-.336.846-.75 0-.415-.379-.75-.846-.75-.468 0-.847.335-.847.75 0 .414.38.75.847.75Zm-4.232 0c.467 0 .846-.336.846-.75 0-.415-.379-.75-.846-.75-.468 0-.847.335-.847.75 0 .414.38.75.847.75ZM22.12 16.499a3.24 3.24 0 0 0-1.646.442 2.721 2.721 0 0 0-1.09 1.178 2.348 2.348 0 0 0-.17 1.517c.115.509.397.977.812 1.344.414.367.942.617 1.517.718.574.101 1.17.05 1.711-.15a2.915 2.915 0 0 0 1.33-.966c.325-.432.499-.94.499-1.459 0-.695-.313-1.363-.869-1.855-.555-.492-1.308-.769-2.094-.77Zm0 3.75c-.25 0-.496-.066-.705-.19a1.167 1.167 0 0 1-.468-.505 1.006 1.006 0 0 1-.072-.65c.05-.218.17-.419.348-.576a1.33 1.33 0 0 1 .65-.308c.246-.043.501-.021.733.064.232.085.43.23.57.415.14.184.214.402.214.625 0 .298-.134.584-.372.795-.238.21-.56.33-.898.33Zm12.697-3.75a3.24 3.24 0 0 0-1.645.442 2.722 2.722 0 0 0-1.092 1.178 2.349 2.349 0 0 0-.168 1.517c.114.509.396.977.81 1.344.415.367.943.617 1.517.718.575.101 1.17.05 1.712-.15a2.914 2.914 0 0 0 1.33-.966c.325-.432.499-.94.499-1.459 0-.695-.313-1.363-.869-1.855-.555-.492-1.308-.769-2.094-.77Zm0 3.75c-.25 0-.496-.066-.705-.19a1.167 1.167 0 0 1-.468-.505 1.006 1.006 0 0 1-.072-.65c.05-.218.17-.419.348-.576a1.33 1.33 0 0 1 .65-.308c.246-.043.501-.021.733.064.232.085.43.23.57.415.14.184.214.402.214.625 0 .298-.134.584-.372.795-.238.21-.561.33-.898.33Zm-8.041-6h-.846a.94.94 0 0 0-.327.055.86.86 0 0 0-.277.162.75.75 0 0 0-.186.244.676.676 0 0 0 0 .577.752.752 0 0 0 .186.244c.08.07.173.125.277.163a.943.943 0 0 0 .326.054h.847a.903.903 0 0 0 .593-.222.71.71 0 0 0 .245-.527.71.71 0 0 0-.245-.528.903.903 0 0 0-.593-.222Zm4.232 0h-.846a.903.903 0 0 0-.593.222.709.709 0 0 0-.245.528c0 .197.088.387.245.527s.37.22.593.223h.846a.943.943 0 0 0 .327-.055.863.863 0 0 0 .277-.163.754.754 0 0 0 .186-.244.678.678 0 0 0 0-.577.752.752 0 0 0-.186-.244.86.86 0 0 0-.277-.162.94.94 0 0 0-.327-.055Z"/>
  <path fill="#37B29A" d="M45.806 11.056c-.528-1.748-1.818-3.238-3.587-4.142-1.768-.905-3.87-1.15-5.841-.682-1.4.333-3.163 1.402-4.102 2.487a.856.856 0 0 1-.308.21.957.957 0 0 1-.38.07H25.35a.96.96 0 0 1-.38-.07.859.859 0 0 1-.308-.21c-.938-1.085-2.701-2.154-4.102-2.486-1.972-.469-4.073-.224-5.842.681-1.768.905-3.058 2.394-3.587 4.142-3.461 11.45-2.712 17.592 2.291 18.78 3.104.738 5.93-.977 8.407-5.095.1.005.196.007.291.007 1.6.005 3.142-.532 4.31-1.5h4.077c1.169.968 2.71 1.505 4.31 1.5.096 0 .193-.002.292-.007 2.105 3.498 4.461 5.262 7.025 5.262a5.96 5.96 0 0 0 1.382-.167c5.003-1.188 5.752-7.33 2.29-18.78Zm-2.728 17.331c-2.338.555-4.598-1.055-6.727-4.781a.807.807 0 0 0-.364-.325.946.946 0 0 0-.51-.079 5.131 5.131 0 0 1-2.485-.282 4.667 4.667 0 0 1-1.528-.94.858.858 0 0 0-.279-.171.94.94 0 0 0-.332-.06h-4.768a.94.94 0 0 0-.332.06.858.858 0 0 0-.279.17 4.668 4.668 0 0 1-1.529.941 5.133 5.133 0 0 1-2.485.282.946.946 0 0 0-.509.078.808.808 0 0 0-.364.326c-2.129 3.726-4.392 5.336-6.726 4.781-3.795-.9-4.173-6.76-1.094-16.943.342-1.13 1.095-2.128 2.141-2.841 1.047-.714 2.33-1.102 3.65-1.105.528 0 1.054.062 1.564.183 1.047.25 2.48 1.124 3.195 1.95.242.272.55.492.903.642.352.15.738.228 1.129.226h6.238a2.84 2.84 0 0 0 1.13-.225c.352-.15.661-.37.903-.643.715-.826 2.148-1.7 3.196-1.95a6.688 6.688 0 0 1 4.557.532c1.38.706 2.386 1.868 2.799 3.231 3.079 10.183 2.7 16.042-1.094 16.943Z"/>
</svg>
