<svg xmlns="http://www.w3.org/2000/svg" width="34" height="34" fill="none" viewBox="0 0 34 34">
  <path fill="#37B29A" d="M23.357 11.072H18.5V6.214a1.214 1.214 0 1 0-2.429 0v4.857h-4.857a1.214 1.214 0 1 0 0 2.429h4.857v4.857a1.214 1.214 0 1 0 2.429 0V13.5h4.857a1.214 1.214 0 1 0 0-2.428ZM22.654 25H11.346C10.601 25 10 24.553 10 24c0-.553.601-1 1.346-1h11.308c.745 0 1.346.447 1.346 1 0 .553-.601 1-1.346 1Z"/>
  <path fill="#37B29A" d="M28.729 2.134H5.088A3.086 3.086 0 0 0 2 5.222v23.64a3.086 3.086 0 0 0 3.088 3.088h23.64a3.086 3.086 0 0 0 3.088-3.088V5.222a3.086 3.086 0 0 0-3.087-3.088Zm2.244 26.682a2.287 2.287 0 0 1-2.291 2.291H5.134a2.287 2.287 0 0 1-2.29-2.291V5.268a2.291 2.291 0 0 1 2.29-2.29h23.548a2.287 2.287 0 0 1 2.291 2.29v23.548Z"/>
</svg>
