<svg xmlns="http://www.w3.org/2000/svg" width="32" height="32" fill="none" viewBox="0 0 32 32">
  <g clip-path="url(#a)">
    <path fill="#37B29A" d="M27.313 0H4.688A4.701 4.701 0 0 0 0 4.688v22.625A4.701 4.701 0 0 0 4.688 32h22.625A4.702 4.702 0 0 0 32 27.312V4.688A4.701 4.701 0 0 0 27.312 0Zm3.437 27.313a3.45 3.45 0 0 1-3.438 3.437H4.688a3.45 3.45 0 0 1-3.437-3.438V4.688A3.45 3.45 0 0 1 4.688 1.25h22.625a3.45 3.45 0 0 1 3.437 3.438v22.625Z"/>
    <path fill="#37B29A" d="M14.762 16.813h-.325v3.546c0 .425-.279.704-.704.704h-1.03c-.424 0-.703-.279-.703-.704v-9.655c0-.425.279-.704.704-.704h2.165c2.364 0 4.037.79 4.037 3.247 0 1.787-.87 2.703-1.733 3.108l1.999 3.812c.06.113.093.239.1.365 0 .365-.352.518-.704.518h-.917c-.604 0-.803-.14-.956-.465l-1.933-3.772Zm-.325-1.912c1.308 0 2.065-.086 2.065-1.587s-.757-1.56-2.065-1.56V14.9Z"/>
  </g>
  <defs>
    <clipPath id="a">
      <path fill="#fff" d="M0 0h32v32H0z"/>
    </clipPath>
  </defs>
</svg>
