<svg xmlns="http://www.w3.org/2000/svg" width="34" height="34" fill="none" viewBox="0 0 34 34">
  <g clip-path="url(#a)">
    <path fill="#37B29A" d="M18.587 34h-3.174a2.122 2.122 0 0 1-2.105-1.87l-.338-2.658a13.381 13.381 0 0 1-1.947-.806l-2.116 1.645a2.114 2.114 0 0 1-2.813-.178L3.865 27.9a2.108 2.108 0 0 1-.174-2.803l1.645-2.118c-.32-.626-.59-1.277-.806-1.947l-2.663-.338A2.127 2.127 0 0 1 0 18.587v-3.174c0-1.072.803-1.977 1.87-2.105l2.658-.338c.217-.67.486-1.32.806-1.947L3.69 8.907a2.11 2.11 0 0 1 .18-2.814l2.232-2.231a2.11 2.11 0 0 1 2.803-.173l2.117 1.646c.627-.32 1.278-.589 1.948-.806l.338-2.663A2.122 2.122 0 0 1 15.413 0h3.174c1.072 0 1.977.803 2.105 1.87l.338 2.658c.678.22 1.33.49 1.948.806l2.117-1.645a2.111 2.111 0 0 1 2.812.18L30.138 6.1c.76.738.837 1.947.173 2.804l-1.645 2.118c.318.619.588 1.27.806 1.946l2.664.339A2.125 2.125 0 0 1 34 15.413v3.174a2.122 2.122 0 0 1-1.87 2.105l-2.658.338c-.217.67-.486 1.32-.806 1.947l1.645 2.116a2.11 2.11 0 0 1-.18 2.813l-2.231 2.23a2.106 2.106 0 0 1-2.804.174l-2.118-1.645c-.626.32-1.277.59-1.946.806l-.339 2.663A2.125 2.125 0 0 1 18.587 34Zm-7.636-6.885a.71.71 0 0 1 .345.09 11.93 11.93 0 0 0 2.514 1.042.708.708 0 0 1 .507.59l.396 3.117c.043.356.35.63.7.63h3.174a.714.714 0 0 0 .698-.623l.398-3.122a.708.708 0 0 1 .507-.59c.875-.25 1.718-.6 2.513-1.043a.707.707 0 0 1 .78.06l2.479 1.926a.697.697 0 0 0 .928-.048l2.245-2.246a.701.701 0 0 0 .055-.935l-1.926-2.479a.708.708 0 0 1-.06-.78c.443-.794.793-1.637 1.043-2.512a.709.709 0 0 1 .59-.507l3.117-.397a.718.718 0 0 0 .63-.701v-3.174a.714.714 0 0 0-.623-.698l-3.122-.398a.708.708 0 0 1-.59-.507 11.88 11.88 0 0 0-1.043-2.514.703.703 0 0 1 .06-.779l1.926-2.479a.694.694 0 0 0-.047-.926L26.9 4.866a.697.697 0 0 0-.935-.055l-2.48 1.927a.709.709 0 0 1-.78.06 11.843 11.843 0 0 0-2.513-1.043.709.709 0 0 1-.507-.591l-.397-3.117a.718.718 0 0 0-.701-.63h-3.174a.714.714 0 0 0-.698.622l-.398 3.122a.711.711 0 0 1-.507.592c-.875.25-1.719.599-2.514 1.041a.708.708 0 0 1-.78-.058L8.036 4.81a.694.694 0 0 0-.926.046L4.865 7.103a.701.701 0 0 0-.055.935l1.926 2.48a.709.709 0 0 1 .06.778 11.817 11.817 0 0 0-1.043 2.514.708.708 0 0 1-.59.507l-3.117.396a.715.715 0 0 0-.63.7v3.174c0 .35.274.657.623.698l3.122.398a.708.708 0 0 1 .59.507 11.89 11.89 0 0 0 1.043 2.513.704.704 0 0 1-.06.78l-1.926 2.479a.694.694 0 0 0 .047.926L7.1 29.134a.7.7 0 0 0 .935.055l2.48-1.927a.73.73 0 0 1 .436-.147Z"/>
    <path fill="#37B29A" d="M17 24.083A7.091 7.091 0 0 1 9.917 17 7.091 7.091 0 0 1 17 9.917 7.091 7.091 0 0 1 24.083 17 7.091 7.091 0 0 1 17 24.083Zm0-12.75A5.672 5.672 0 0 0 11.333 17 5.672 5.672 0 0 0 17 22.667 5.672 5.672 0 0 0 22.667 17 5.672 5.672 0 0 0 17 11.333Z"/>
  </g>
  <defs>
    <clipPath id="a">
      <path fill="#fff" d="M0 0h34v34H0z"/>
    </clipPath>
  </defs>
</svg>
