<svg xmlns="http://www.w3.org/2000/svg" width="34" height="34" fill="none" viewBox="0 0 34 34">
  <path fill="#37B29A" d="M14.813 25.684h-1.365a.46.46 0 1 1 0-.92h1.365a.46.46 0 0 1 0 .92Z"/>
  <path fill="#37B29A" d="M26.249 25.684h-8.22a.46.46 0 1 1 0-.92h7.873c.69-1.985 3.522-4.645 3.65-4.764 2.255-2.04 2.572-5.192 2.607-6.406-2.088.294-4.224.654-6.354 1.072A147.677 147.677 0 0 0 4.87 20.415a99.193 99.193 0 0 0-3.032 1.136v3.214h3.846a.46.46 0 0 1 0 .919H1.378a.46.46 0 0 1-.46-.46v-3.983a.459.459 0 0 1 .285-.425c.013-.005 1.24-.51 3.354-1.267a148.621 148.621 0 0 1 21.071-5.784c2.297-.452 4.607-.837 6.927-1.153a.46.46 0 0 1 .52.428c.012.194.244 4.792-2.902 7.636-.859.803-3.17 3.213-3.475 4.644a.46.46 0 0 1-.45.364Z"/>
  <path fill="#37B29A" d="M10.232 25.684H8.9a.46.46 0 1 1 0-.92h1.332a.46.46 0 1 1 0 .92Zm-5.518-5.245a.46.46 0 0 1-.46-.46v-6.695a.46.46 0 0 1 .344-.444c5.075-1.32 15.554-1.997 15.998-2.026.09-.006.18.015.258.06l5.092 2.941a.46.46 0 1 1-.46.796l-4.97-2.87c-1.245.083-10.545.738-15.343 1.901v6.338a.46.46 0 0 1-.46.46Z"/>
  <path fill="#37B29A" d="M4.714 16.98a.46.46 0 0 1-.158-.893c5.962-2.165 18.103-3.966 18.226-3.984a.459.459 0 1 1 .134.91c-.12.017-12.171 1.805-18.046 3.938a.458.458 0 0 1-.156.028Zm7.563-4.487a.46.46 0 0 1-.442-.334l-.928-3.257a.46.46 0 0 1 .442-.586h3.29a.46.46 0 0 1 .438.322l.91 2.908a.46.46 0 1 1-.886.245l-.8-2.556h-2.344l.762 2.672a.46.46 0 0 1-.442.586Zm-5.247.754a.46.46 0 0 1-.445-.345L5.547 8.891a.46.46 0 0 1 .444-.575h3.29a.46.46 0 0 1 .44.326l1.061 3.497a.46.46 0 1 1-.88.267l-.964-3.17H6.585l.89 3.436a.46.46 0 0 1-.445.575Zm16.664 5.233a.46.46 0 1 0 0-.919.46.46 0 0 0 0 .919ZM21 19.104a.46.46 0 1 0 0-.92.46.46 0 0 0 0 .92Zm-2.695.624a.46.46 0 1 0 0-.92.46.46 0 0 0 0 .92Z"/>
</svg>
