<svg xmlns="http://www.w3.org/2000/svg" width="25" height="32" fill="none" viewBox="0 0 25 32">
  <path fill="#37B29A" fill-rule="evenodd" d="m3.932 28.219 2.949-6.054a3.448 3.448 0 0 1-1.006-2.438c0-.811.28-1.557.747-2.147A15.48 15.48 0 0 1 2.596 7.149C2.596 4.93 3.062 2.82 3.9.91a.53.53 0 0 1 .863-.16l5.075 5.112 8.846.042 2.172-1.939a.988.988 0 1 1 1.96-.185.989.989 0 0 1-1.232.96l-2.148 1.916v8.812l-.003.058 5.003 5.038a.532.532 0 0 1-.167.862 15.474 15.474 0 0 1-6.135 1.26 15.48 15.48 0 0 1-5.855-1.142 3.47 3.47 0 0 1-.311.427l3.441 6.247h2.434a.531.531 0 0 1 .531.531v2.125a.531.531 0 0 1-.531.531H1.375a.53.53 0 0 1-.531-.531V28.75a.531.531 0 0 1 .531-.531h2.557Zm13.38 1.062v1.063H1.906V29.28h15.406Zm-3.115-1.062H5.114l2.638-5.415a3.44 3.44 0 0 0 1.584.383 3.437 3.437 0 0 0 1.808-.51l3.053 5.542Zm-4.861-10.89a2.4 2.4 0 0 1 0 4.796 2.4 2.4 0 0 1 0-4.797Zm3.358 3.237a14.42 14.42 0 0 0 5.44 1.059c1.7.002 3.387-.297 4.983-.881L4.576 2.07v-.001a14.426 14.426 0 0 0-.918 5.08 14.42 14.42 0 0 0 3.743 9.708 3.462 3.462 0 0 1 5.293 3.709Zm-3.358-1.97a1.132 1.132 0 1 1 .098 2.262 1.132 1.132 0 0 1-.098-2.262Zm5.431-7.77 3.608 3.633V7.606l-3.608 3.22Zm-.75-.755 3.484-3.11-6.602-.031 3.119 3.141Z" clip-rule="evenodd"/>
</svg>
