<svg xmlns="http://www.w3.org/2000/svg" width="34" height="34" fill="none" viewBox="0 0 34 34">
  <g clip-path="url(#a)">
    <path fill="#37B29A" d="M25.572 17.708a4.246 4.246 0 0 0 4.178 3.542A4.255 4.255 0 0 0 34 17a4.255 4.255 0 0 0-4.25-4.25 4.246 4.246 0 0 0-4.178 3.542H21.25V6.375a1.417 1.417 0 0 1 1.417-1.417h2.905A4.246 4.246 0 0 0 29.75 8.5 4.255 4.255 0 0 0 34 4.25 4.255 4.255 0 0 0 29.75 0a4.246 4.246 0 0 0-4.178 3.542h-2.905a2.836 2.836 0 0 0-2.834 2.833v9.917H17v1.416h2.833v9.917a2.836 2.836 0 0 0 2.834 2.833h2.905A4.246 4.246 0 0 0 29.75 34 4.255 4.255 0 0 0 34 29.75a4.255 4.255 0 0 0-4.25-4.25 4.246 4.246 0 0 0-4.178 3.542h-2.905a1.417 1.417 0 0 1-1.417-1.417v-9.917h4.322Zm4.178-3.541A2.836 2.836 0 0 1 32.583 17a2.836 2.836 0 0 1-2.833 2.833A2.836 2.836 0 0 1 26.917 17a2.836 2.836 0 0 1 2.833-2.833Zm0-12.75a2.836 2.836 0 0 1 2.833 2.833 2.836 2.836 0 0 1-2.833 2.833 2.836 2.836 0 0 1-2.833-2.833 2.836 2.836 0 0 1 2.833-2.833Zm0 25.5a2.836 2.836 0 0 1 2.833 2.833 2.836 2.836 0 0 1-2.833 2.833 2.836 2.836 0 0 1-2.833-2.833 2.836 2.836 0 0 1 2.833-2.833ZM14.875 17c0-.388-.043-.78-.133-1.206l2.162-1.269-2.155-3.665-2.148 1.264a6.385 6.385 0 0 0-1.977-1.114V8.501h-4.25v2.51c-.73.254-1.4.631-1.978 1.113L2.248 10.86.095 14.525l2.162 1.27c-.09.424-.133.815-.133 1.205 0 .39.042.78.133 1.206L.095 19.475 2.25 23.14l2.147-1.264a6.38 6.38 0 0 0 1.978 1.114v2.509h4.25v-2.51c.73-.254 1.4-.631 1.978-1.113l2.147 1.264 2.155-3.665-2.162-1.27A5.79 5.79 0 0 0 14.876 17h-.001Zm.09 2.98-.719 1.22-1.893-1.12a4.927 4.927 0 0 1-3.146 1.808v2.197H7.79v-2.198a4.932 4.932 0 0 1-3.138-1.796l-1.9 1.11-.72-1.22 1.884-1.098a4.918 4.918 0 0 1 .002-3.77l-1.885-1.088.718-1.221 1.907 1.102a4.933 4.933 0 0 1 3.13-1.79V9.92h1.418v2.198a4.934 4.934 0 0 1 3.147 1.807l1.892-1.122.718 1.222-1.879 1.112c.236.576.372 1.205.372 1.865 0 .66-.136 1.291-.372 1.868l1.88 1.11ZM8.5 14.166A2.836 2.836 0 0 0 5.667 17 2.836 2.836 0 0 0 8.5 19.833 2.836 2.836 0 0 0 11.333 17 2.836 2.836 0 0 0 8.5 14.167Zm0 4.25a1.417 1.417 0 1 1 0-2.834 1.417 1.417 0 0 1 0 2.834Z"/>
  </g>
  <defs>
    <clipPath id="a">
      <path fill="#fff" d="M0 0h34v34H0z"/>
    </clipPath>
  </defs>
</svg>
