<svg xmlns="http://www.w3.org/2000/svg" width="34" height="34" fill="none" viewBox="0 0 34 34">
  <g clip-path="url(#a)">
    <path fill="#37B29A" d="m33.128 22.186-.707-.273a5.479 5.479 0 0 0-.45-1.083l.309-.693a.531.531 0 0 0-.11-.591l-1.11-1.11a.53.53 0 0 0-.59-.11l-.694.308a5.456 5.456 0 0 0-1.083-.448l-.272-.708a.531.531 0 0 0-.496-.34h-1.57a.532.532 0 0 0-.495.34l-.273.708a5.47 5.47 0 0 0-1.082.448l-.693-.308a.531.531 0 0 0-.592.11l-1.11 1.11a.532.532 0 0 0-.11.591l.309.694a5.466 5.466 0 0 0-.449 1.082l-.708.273a.53.53 0 0 0-.34.495v1.57a.53.53 0 0 0 .34.495l.708.273c.11.376.26.739.449 1.082l-.308.694a.53.53 0 0 0 .11.59l1.11 1.11a.532.532 0 0 0 .59.11l.694-.308a5.47 5.47 0 0 0 1.082.449l.273.708a.53.53 0 0 0 .496.34h1.569a.531.531 0 0 0 .496-.34l.272-.708c.376-.11.74-.26 1.083-.449l.693.308a.531.531 0 0 0 .591-.11l1.11-1.11a.53.53 0 0 0 .11-.59l-.308-.694c.188-.344.338-.707.448-1.082l.708-.273a.531.531 0 0 0 .34-.496v-1.569a.532.532 0 0 0-.34-.495Zm-.722 1.7-.62.238a.532.532 0 0 0-.326.373c-.109.457-.29.894-.536 1.293a.53.53 0 0 0-.033.495l.27.607-.594.594-.608-.27a.532.532 0 0 0-.494.033c-.4.247-.836.428-1.293.537a.53.53 0 0 0-.373.326l-.239.62h-.84l-.238-.62a.531.531 0 0 0-.373-.327 4.414 4.414 0 0 1-1.293-.536.532.532 0 0 0-.494-.033l-.608.27-.594-.594.27-.607a.531.531 0 0 0-.033-.494 4.41 4.41 0 0 1-.537-1.294.53.53 0 0 0-.325-.373l-.62-.238v-.84l.62-.239a.531.531 0 0 0 .326-.372c.108-.457.29-.894.536-1.294a.532.532 0 0 0 .033-.494l-.27-.608.594-.594.608.27a.533.533 0 0 0 .494-.033c.4-.246.836-.427 1.293-.536a.532.532 0 0 0 .373-.326l.239-.62h.84l.238.62a.532.532 0 0 0 .373.326c.457.109.893.29 1.293.536a.53.53 0 0 0 .494.034l.608-.27.594.593-.27.608a.531.531 0 0 0 .033.494c.247.4.428.837.536 1.294a.531.531 0 0 0 .326.372l.62.239v.84Zm-5.266-3.688a3.271 3.271 0 0 0-3.267 3.268 3.271 3.271 0 0 0 3.267 3.267 3.271 3.271 0 0 0 3.268-3.267 3.271 3.271 0 0 0-3.268-3.268Zm0 5.473a2.208 2.208 0 0 1-2.205-2.205c0-1.216.99-2.206 2.205-2.206 1.216 0 2.206.99 2.206 2.206s-.99 2.205-2.206 2.205ZM31.51.53H21.056a1.96 1.96 0 0 0-1.959 1.959v7.153a1.96 1.96 0 0 0 1.959 1.959h.677v2.376a.531.531 0 0 0 .914.368l2.636-2.744h6.227a1.96 1.96 0 0 0 1.959-1.959V2.49A1.96 1.96 0 0 0 31.51.53Zm.896 9.112a.897.897 0 0 1-.896.896h-6.453a.53.53 0 0 0-.383.164l-1.879 1.955V11.07a.532.532 0 0 0-.531-.531h-1.208a.897.897 0 0 1-.896-.897V2.49c0-.494.402-.896.896-.896H31.51c.494 0 .896.402.896.896v7.153ZM26.283 7.66c.568 0 1.028-.444 1.049-1.011l.13-3.626a1.045 1.045 0 0 0-1.048-1.087h-.262a1.043 1.043 0 0 0-1.048 1.087l.13 3.626a1.045 1.045 0 0 0 1.05 1.011Zm.117-4.662-.117 3.245-.117-3.245h.234Zm-.117 4.784a1.196 1.196 0 1 0 1.195 1.195c0-.659-.536-1.195-1.195-1.195Zm0 1.327a.132.132 0 1 1 0-.265.132.132 0 0 1 0 .265Zm-7.616 3.36H4.042c-.64 0-1.162.522-1.162 1.163v7.23l-1.816-.005h-.002a.531.531 0 0 0-.53.531v3.134a.531.531 0 0 0 .529.531l1.819.006v7.248c0 .641.521 1.163 1.162 1.163h11.08c.315 0 .6-.118.822-.34l3.545-3.545a1.14 1.14 0 0 0 .34-.822V13.63c0-.641-.521-1.162-1.162-1.162ZM1.594 21.92l3.879.012h.001a.531.531 0 0 0 .531-.53l.002-.733 2.916 2.307-2.927 2.293.002-.733a.531.531 0 0 0-.53-.533l-3.874-.012v-2.07Zm2.348 10.386v-7.245l.992.003-.001.582a.879.879 0 0 0 1.42.693l3.41-2.671a.873.873 0 0 0 .25-1.073.872.872 0 0 0-.247-.307L6.369 19.6a.872.872 0 0 0-.927-.103.872.872 0 0 0-.496.79l-.002.581-1.002-.003V13.63c0-.054.046-.1.1-.1h14.624a.1.1 0 0 1 .1.1v14.86H15.7a.848.848 0 0 0-.847.848v3.067H4.042a.101.101 0 0 1-.1-.1Zm11.973-.651v-2.1h2.1l-2.1 2.1Zm-.111-14.3H6.905a.53.53 0 1 1 0-1.062h8.899a.531.531 0 0 1 0 1.062Zm-7.188 8.686a.531.531 0 0 1 .531-.531h6.657a.53.53 0 1 1 0 1.062H9.147a.531.531 0 0 1-.531-.531Zm7.188-5.613H9.147a.531.531 0 0 1 0-1.063h6.657a.53.53 0 1 1 0 1.063Zm-2.776 8.685a.531.531 0 0 1-.532.531h-5.59a.53.53 0 1 1 0-1.062h5.59a.531.531 0 0 1 .532.531Zm3.307-6.144a.53.53 0 0 1-.531.53h-4.45a.53.53 0 1 1 0-1.062h4.45a.531.531 0 0 1 .53.532Z"/>
  </g>
  <defs>
    <clipPath id="a">
      <path fill="#fff" d="M0 0h34v34H0z"/>
    </clipPath>
  </defs>
</svg>
