<svg xmlns="http://www.w3.org/2000/svg" width="34" height="34" fill="none" viewBox="0 0 34 34">
  <path fill="#1BE333" d="M28.72 26.09c-.522 0-1.032.153-1.467.44l-.595-.6c1.684-2.656.383-5.843-1.402-8.93C30.812 7.804 24.83 3.767 17 8.75c-3.591-2.21-7.007-2.832-8.94-1.408l-.601-.6A2.63 2.63 0 1 0 2.656 5.28a2.656 2.656 0 0 0 4.086 2.188l.6.6C5.658 10.132 7.102 14.52 8.76 17a17.065 17.065 0 0 0-1.567 3.188c-1.44 3.947-.382 7.182 3.506 7.24 1.807 0 4.022-.754 6.306-2.172 2.657 1.567 6.248 3.187 8.92 1.407l.606.606a2.656 2.656 0 0 0 2.188 4.075c3.464-.117 3.47-5.137 0-5.254Zm-2.806-.898-3.968-3.974a26.72 26.72 0 0 0 2.656-3.246c1.727 2.943 2.295 5.7 1.312 7.22Zm-11.092-9.648a2.624 2.624 0 0 0 3.634 3.634l2.034 2.04a24.084 24.084 0 0 1-3.49 2.81A25.612 25.612 0 0 1 9.966 17a24.709 24.709 0 0 1 2.81-3.496l2.046 2.04Zm4.356 2.912a2.624 2.624 0 0 0-3.634-3.634l-2.04-2.045A25.322 25.322 0 0 1 17 9.972a24.8 24.8 0 0 1 3.878 3.187A24.623 24.623 0 0 1 24.018 17a23.566 23.566 0 0 1-2.8 3.49l-2.04-2.034ZM20.522 8.16c5.993-2.157 7.438 2.205 4.101 7.868a27.456 27.456 0 0 0-6.667-6.657 16.364 16.364 0 0 1 2.566-1.211Zm-9.844-.531c1.493 0 3.379.627 5.355 1.78a25.36 25.36 0 0 0-3.251 2.656L8.808 8.096a3.41 3.41 0 0 1 1.87-.489v.022ZM8.16 13.478c-.723-1.976-.723-3.64-.074-4.67l3.968 3.974a25.14 25.14 0 0 0-2.656 3.267 15.99 15.99 0 0 1-1.238-2.571Zm.244 12.118c-1.646-1.44-.387-5.536.973-7.645a25.748 25.748 0 0 0 3.038 3.634 25.695 25.695 0 0 0 3.623 3.033c-3.235 1.875-6.242 2.375-7.634.978Zm12.118.244a16.369 16.369 0 0 1-2.566-1.211 25.122 25.122 0 0 0 3.262-2.657l3.969 3.969c-1.026.622-2.694.622-4.665-.101Z"/>
</svg>
