<svg xmlns="http://www.w3.org/2000/svg" width="50" height="50" fill="none" viewBox="0 0 50 50">
  <g clip-path="url(#a)">
    <path fill="#00DFB2" d="M1.465 10.62c.809 0 1.465-.655 1.465-1.464V2.93h6.226a1.465 1.465 0 0 0 0-2.93H2.93A2.933 2.933 0 0 0 0 2.93v6.226c0 .809.656 1.465 1.465 1.465ZM47.07 0h-6.226a1.465 1.465 0 0 0 0 2.93h6.226v6.226a1.465 1.465 0 0 0 2.93 0V2.93A2.933 2.933 0 0 0 47.07 0Zm1.465 39.38c-.809 0-1.465.655-1.465 1.464v6.226h-6.226a1.465 1.465 0 0 0 0 2.93h6.226A2.933 2.933 0 0 0 50 47.07v-6.226c0-.809-.656-1.465-1.465-1.465Zm-39.38 7.69H2.93v-6.226a1.465 1.465 0 0 0-2.93 0v6.226A2.933 2.933 0 0 0 2.93 50h6.226a1.465 1.465 0 0 0 0-2.93Zm4.314-32.313C7.717 17.1 2.729 21.349.032 25.34a.19.19 0 0 0 0 .211C3.21 30.26 8.094 33.77 13.926 35.72c-5.611-5.787-5.82-14.923-.457-20.962Zm23.062 0c5.415 6.097 5.098 15.292-.426 20.948 5.82-1.952 10.693-5.457 13.863-10.152a.19.19 0 0 0 0-.212c-2.737-4.052-7.733-8.26-13.437-10.584Z"/>
    <path fill="#00DFB2" d="M25 12.495c-6.887 0-12.492 5.602-12.492 12.492 0 9.426 10.124 15.602 18.555 10.914 4.026-2.24 6.43-6.32 6.43-10.914 0-6.887-5.604-12.492-12.493-12.492Zm2.742 19.728c-4.97 1.878-10.477-1.718-10.477-7.236 0-6.133 6.748-9.616 11.557-6.727 5.673 3.232 5.046 11.648-1.08 13.963Z"/>
    <path fill="#00DFB2" d="M27.379 20.808c-3.286-1.815-7.185.553-7.185 4.18 0 3.404 3.395 5.677 6.511 4.495 3.869-1.463 4.134-6.694.674-8.675Z"/>
  </g>
  <defs>
    <clipPath id="a">
      <path fill="#fff" d="M0 0h50v50H0z"/>
    </clipPath>
  </defs>
</svg>
