<svg xmlns="http://www.w3.org/2000/svg" width="34" height="34" fill="none" viewBox="0 0 34 34">
  <g clip-path="url(#a)">
    <path fill="#37B29A" d="M33.048 19.855a.703.703 0 0 0-.856.518c-1.677 6.82-7.79 11.957-14.538 12.215-4.408.163-8.53-1.453-11.652-4.578a15.444 15.444 0 0 1-4.557-11.632C1.747 8.428 8.46 1.714 16.409 1.414c7.982-.306 14.896 5.43 16.031 13.338a1.293 1.293 0 0 1-.319 1.045 1.422 1.422 0 0 1-1.076.496H28.3a11.268 11.268 0 0 0-.646-3.142 2.81 2.81 0 0 0 .677-1.816A2.836 2.836 0 0 0 25.499 8.5c-.3 0-.584.06-.856.146a11.27 11.27 0 0 0-7.644-2.979c-2.85 0-5.558 1.058-7.653 2.978a2.805 2.805 0 0 0-.847-.145 2.836 2.836 0 0 0-2.834 2.834c0 .695.262 1.326.68 1.819A11.298 11.298 0 0 0 5.665 17c0 5.185 3.56 9.709 8.536 10.975a2.826 2.826 0 0 0 2.798 2.484 2.83 2.83 0 0 0 2.799-2.496c3.63-.93 6.63-3.626 7.89-7.184a.71.71 0 1 0-1.338-.472 9.95 9.95 0 0 1-6.735 6.239 2.83 2.83 0 0 0-5.229-.014C10.125 25.365 7.082 21.477 7.082 17a9.917 9.917 0 0 1 .473-3.006c.296.105.61.173.944.173a2.836 2.836 0 0 0 2.833-2.833 2.81 2.81 0 0 0-.738-1.89 9.877 9.877 0 0 1 12.81-.002 2.81 2.81 0 0 0-.739 1.892 2.836 2.836 0 0 0 2.834 2.833c.324 0 .63-.066.92-.167.237.744.377 1.509.433 2.292H22.63a5.673 5.673 0 0 0-11.3.708 5.672 5.672 0 0 0 5.667 5.667 5.621 5.621 0 0 0 4.048-1.701.709.709 0 0 0-1.013-.99 4.211 4.211 0 0 1-3.036 1.274 4.255 4.255 0 0 1-4.25-4.25 4.255 4.255 0 0 1 4.25-4.25c2.343 0 4.26 1.907 4.26 4.25a.709.709 0 0 0 .708.709h9.078c.822 0 1.605-.359 2.148-.985a2.731 2.731 0 0 0 .65-2.174C32.605 5.92 25.055-.34 16.355-.001 7.535.333.365 7.504.03 16.323c-.183 4.795 1.584 9.302 4.99 12.707a16.824 16.824 0 0 0 12.688 4.973c7.366-.28 14.035-5.87 15.858-13.291a.708.708 0 0 0-.518-.857ZM17 26.208c.78 0 1.417.636 1.417 1.417A1.42 1.42 0 0 1 17 29.042a1.42 1.42 0 0 1-1.417-1.417c0-.78.636-1.417 1.417-1.417ZM8.5 12.75a1.42 1.42 0 0 1-1.417-1.417c0-.78.636-1.416 1.417-1.416.78 0 1.417.636 1.417 1.416A1.42 1.42 0 0 1 8.5 12.75Zm15.583-1.417a1.419 1.419 0 1 1 2.837-.002 1.419 1.419 0 0 1-2.837.002Z"/>
  </g>
  <defs>
    <clipPath id="a">
      <path fill="#fff" d="M0 0h34v34H0z"/>
    </clipPath>
  </defs>
</svg>
