<svg xmlns="http://www.w3.org/2000/svg" width="50" height="50" fill="none" viewBox="0 0 50 50">
  <path fill="#00DFB2" d="M29.374 12.046a1.564 1.564 0 0 0-2.814-1.214 1.546 1.546 0 0 0-.242.56l-5.691 26.562a1.562 1.562 0 0 0 3.054.655l5.693-26.563Zm-10.858 8.367a1.563 1.563 0 1 0-2.21-2.21l-5.692 5.692a1.562 1.562 0 0 0 0 2.21l5.692 5.692a1.563 1.563 0 0 0 2.21-2.211L13.928 25l4.588-4.587Zm15.178-2.21a1.562 1.562 0 1 0-2.21 2.21L36.072 25l-4.588 4.586a1.563 1.563 0 1 0 2.211 2.21l5.692-5.691a1.562 1.562 0 0 0 0-2.21l-5.693-5.692Z"/>
  <path fill="#00DFB2" fill-rule="evenodd" d="M15.625 1.563c-7.766 0-14.063 6.296-14.063 14.062v18.75c0 7.766 6.297 14.063 14.063 14.063h18.75c7.766 0 14.063-6.297 14.063-14.063v-18.75c0-7.766-6.297-14.063-14.063-14.063h-18.75ZM4.687 15.624c0-6.04 4.897-10.938 10.938-10.938h18.75c6.04 0 10.938 4.897 10.938 10.938v18.75c0 6.04-4.897 10.938-10.938 10.938h-18.75c-6.04 0-10.938-4.897-10.938-10.938v-18.75Z" clip-rule="evenodd"/>
</svg>
