<svg xmlns="http://www.w3.org/2000/svg" width="35" height="37" fill="none" viewBox="0 0 35 37">
  <path fill="#00DFB2" d="M6.19 6.16a.447.447 0 0 0-.653.038L3.823 8.217 2.109 6.198a.447.447 0 0 0-.652-.037.505.505 0 0 0-.035.69l1.78 2.096-1.78 2.098a.506.506 0 0 0 .039.684.447.447 0 0 0 .648-.032l1.714-2.019 1.714 2.019a.438.438 0 0 0 .595.083.482.482 0 0 0 .17-.21.514.514 0 0 0-.078-.525l-1.78-2.098 1.78-2.097a.505.505 0 0 0-.035-.69Z"/>
  <path fill="#00DFB2" d="M29.08 14.167h-.021a4.446 4.446 0 0 0-.518.036 5.6 5.6 0 0 0 .05-.737c0-2.943-2.264-5.337-5.048-5.337h-.918c-.217-1.19-1.207-2.093-2.394-2.093-1.188 0-2.18.903-2.396 2.093H7.33a.45.45 0 0 0-.327.143.503.503 0 0 0-.135.345c0 .13.049.253.135.345a.45.45 0 0 0 .327.143h10.505c.216 1.19 1.208 2.093 2.396 2.093 1.187 0 2.177-.903 2.393-2.093h.919c2.275 0 4.125 1.956 4.125 4.361 0 .337-.041.663-.111.978-1.425.526-2.49 1.74-2.902 3.214-.354.107-.726.17-1.112.17H12.818c-.216-1.19-1.207-2.093-2.393-2.093-1.19 0-2.182.904-2.397 2.096-2.85.039-5.156 2.497-5.156 5.518 0 3.045 2.343 5.522 5.223 5.522h6.792c.217 1.19 1.208 2.093 2.396 2.093 1.187 0 2.177-.902 2.394-2.093h6.685c.526 1.029 1.555 1.729 2.736 1.729 1.712 0 3.105-1.475 3.105-3.287 0-.994-.422-1.883-1.083-2.486 1.235-1.893 2.584-4.307 2.576-5.805-.011-2.681-2.08-4.855-4.616-4.855Zm-8.849-3.945c-.837 0-1.518-.72-1.518-1.605s.68-1.605 1.518-1.605c.835 0 1.515.72 1.515 1.605s-.68 1.604-1.515 1.604Zm-9.807 6.489c.836 0 1.516.72 1.516 1.604 0 .885-.68 1.605-1.515 1.605-.837 0-1.518-.72-1.518-1.605s.68-1.604 1.518-1.604Zm6.86 13.277c-.838 0-1.519-.72-1.519-1.605s.681-1.604 1.518-1.604c.836 0 1.515.72 1.515 1.604 0 .885-.68 1.605-1.515 1.605Zm8.705-2.675c0 .199.02.393.052.582h-6.364c-.217-1.19-1.207-2.093-2.394-2.093-1.188 0-2.18.903-2.396 2.093H8.095c-2.37 0-4.3-2.04-4.3-4.546 0-2.483 1.894-4.504 4.234-4.542.218 1.189 1.208 2.09 2.395 2.09s2.178-.903 2.394-2.093h10.725a4.7 4.7 0 0 0 .938-.097c-.008.12-.016.24-.015.363.005 1.506 1.351 3.902 2.58 5.777a3.36 3.36 0 0 0-1.057 2.466Zm5.29 0c0 1.274-.978 2.31-2.18 2.31-1.206 0-2.186-1.036-2.186-2.31 0-.654.26-1.243.674-1.663.296.429.598.853.907 1.272a.72.72 0 0 0 .587.307.7.7 0 0 0 .326-.08.744.744 0 0 0 .259-.225c.313-.426.619-.858.918-1.296.427.422.696 1.02.696 1.685Zm1.494-8.285c.007 1.48-1.875 4.599-3.692 7.1-1.733-2.371-3.687-5.568-3.692-7.063-.009-2.157 1.633-3.912 3.674-3.922h.017c2.032 0 3.684 1.732 3.693 3.884Z"/>
  <path fill="#00DFB2" d="M29.081 16.51c-1.38 0-2.501 1.185-2.501 2.644 0 1.458 1.122 2.644 2.501 2.644 1.38 0 2.501-1.186 2.501-2.644 0-1.459-1.122-2.645-2.501-2.645Zm0 4.312c-.87 0-1.578-.749-1.578-1.668 0-.92.708-1.669 1.578-1.669.87 0 1.578.749 1.578 1.669s-.708 1.668-1.578 1.668Z"/>
</svg>
