<?xml version="1.0" encoding="UTF-8"?>
<svg version="1.1" xmlns="http://www.w3.org/2000/svg" width="32" height="32">
<path d="M0 0 C4.599375 -0.020625 9.19875 -0.04125 13.9375 -0.0625 C15.39019287 -0.071604 16.84288574 -0.08070801 18.33959961 -0.09008789 C19.47405518 -0.09258545 20.60851074 -0.09508301 21.77734375 -0.09765625 C23.52905884 -0.10551147 23.52905884 -0.10551147 25.31616211 -0.11352539 C28 0 28 0 29 1 C29.23722938 4.3663978 29.39608667 7.72552761 29.51757812 11.09765625 C29.69954518 14.86746432 29.86242861 16.79364292 32 20 C32.65753425 26.90410959 32.65753425 26.90410959 30.5 30.5 C26.77354157 32.73587506 24.32088243 32.41151261 20 32 C19.01 31.34 18.02 30.68 17 30 C17 29.34 17 28.68 17 28 C11.39 28 5.78 28 0 28 C0 18.76 0 9.52 0 0 Z M1 3 C1 10.92 1 18.84 1 27 C5.95 27 10.9 27 16 27 C16 26.67 16 26.34 16 26 C11.38 26 6.76 26 2 26 C2 20.72 2 15.44 2 10 C10.25 10 18.5 10 27 10 C27 9.67 27 9.34 27 9 C18.75 9 10.5 9 2 9 C2 7.35 2 5.7 2 4 C10.25 4 18.5 4 27 4 C27 3.67 27 3.34 27 3 C18.42 3 9.84 3 1 3 Z M3 5 C3 5.99 3 6.98 3 8 C10.26 8 17.52 8 25 8 C25 7.01 25 6.02 25 5 C17.74 5 10.48 5 3 5 Z M3 11 C3 15.62 3 20.24 3 25 C3.99 25 4.98 25 6 25 C6 20.38 6 15.76 6 11 C5.01 11 4.02 11 3 11 Z M10 11 C10 15.62 10 20.24 10 25 C11.98 25 13.96 25 16 25 C16.185625 23.88625 16.37125 22.7725 16.5625 21.625 C17.036875 20.42875 17.51125 19.2325 18 18 C21.625 16.5625 21.625 16.5625 25 16 C25 14.35 25 12.7 25 11 C20.05 11 15.1 11 10 11 Z M22 20 C23 22 23 22 23 22 Z M25 20 C25.33 20.99 25.66 21.98 26 23 C26.66 22.67 27.32 22.34 28 22 C27.01 21.34 26.02 20.68 25 20 Z M26 25 C26 25.99 26 26.98 26 28 C26.66 27.01 27.32 26.02 28 25 C27.34 25 26.68 25 26 25 Z M22 26 C23 28 23 28 23 28 Z " fill="#3E3E3E" transform="translate(0,0)"/>
<path d="M0 0 C7.92 0 15.84 0 24 0 C24 1.65 24 3.3 24 5 C23.67 3.68 23.34 2.36 23 1 C18.05 1 13.1 1 8 1 C8 5.62 8 10.24 8 15 C9.65 15 11.3 15 13 15 C13 15.33 13 15.66 13 16 C8.71 16 4.42 16 0 16 C0 10.72 0 5.44 0 0 Z M1 1 C1 5.62 1 10.24 1 15 C1.99 15 2.98 15 4 15 C4 10.38 4 5.76 4 1 C3.01 1 2.02 1 1 1 Z " fill="#2E2E2E" transform="translate(2,10)"/>
</svg>
