<svg xmlns="http://www.w3.org/2000/svg" width="34" height="34" fill="none" viewBox="0 0 34 34">
  <g clip-path="url(#a)">
    <path fill="#00DFB2" d="M20.586 12.617a.664.664 0 1 0 0 1.329.664.664 0 0 0 0-1.329Z"/>
    <path fill="#00DFB2" d="m33.222 29.466-8.864-8.864a13.162 13.162 0 0 0 2.204-7.32C26.563 5.957 20.605 0 13.283 0 5.957 0 0 5.958 0 13.281c0 7.324 5.958 13.281 13.281 13.281 2.627 0 5.146-.76 7.32-2.204l2.45 2.45.002.001 6.413 6.413a2.64 2.64 0 0 0 1.878.778c.709 0 1.376-.276 1.878-.778A2.638 2.638 0 0 0 34 31.344c0-.71-.276-1.377-.778-1.878Zm-12.933-6.508a11.851 11.851 0 0 1-7.008 2.276c-6.59 0-11.953-5.362-11.953-11.953 0-6.59 5.362-11.953 11.953-11.953 6.591 0 11.953 5.362 11.953 11.953a11.85 11.85 0 0 1-2.276 7.008 12.008 12.008 0 0 1-2.668 2.67Zm1.394.603a13.331 13.331 0 0 0 1.878-1.878l1.884 1.884a16.119 16.119 0 0 1-1.878 1.878l-1.884-1.884Zm10.6 8.722a1.32 1.32 0 0 1-.94.389 1.32 1.32 0 0 1-.938-.39l-5.897-5.896c.673-.577 1.3-1.205 1.878-1.878l5.897 5.897a1.317 1.317 0 0 1 .389.939 1.32 1.32 0 0 1-.39.939Z"/>
    <path fill="#00DFB2" d="M13.281 2.656c-5.858 0-10.625 4.767-10.625 10.625 0 5.859 4.767 10.625 10.625 10.625 5.859 0 10.625-4.766 10.625-10.625 0-5.858-4.766-10.625-10.625-10.625Zm0 19.922c-5.126 0-9.297-4.17-9.297-9.297 0-5.126 4.17-9.297 9.297-9.297 5.126 0 9.297 4.17 9.297 9.297 0 5.126-4.17 9.297-9.297 9.297Z"/>
    <path fill="#00DFB2" d="M20.723 10.43a7.97 7.97 0 0 0-2.88-3.68 7.912 7.912 0 0 0-4.562-1.438.664.664 0 0 0 0 1.329 6.686 6.686 0 0 1 6.202 4.266.665.665 0 0 0 1.24-.476Z"/>
  </g>
  <defs>
    <clipPath id="a">
      <path fill="#fff" d="M0 0h34v34H0z"/>
    </clipPath>
  </defs>
</svg>
